<?xml version="1.0" standalone="no"?>
<!DOCTYPE svg PUBLIC "-//W3C//DTD SVG 1.1//EN" "http://www.w3.org/Graphics/SVG/1.1/DTD/svg11.dtd" >
<svg>
<metadata>
Created by FontForge 20090914 at Tue Nov 10 04:44:12 2015
 By www-data
Jamie
</metadata>
<defs>
<font id="SkinnyCaps" horiz-adv-x="334" >
  <font-face 
    font-family="SkinnyCaps"
    font-weight="500"
    font-variant="small-caps"
    font-stretch="normal"
    units-per-em="1000"
    panose-1="2 0 6 3 0 0 0 0 0 0"
    ascent="800"
    descent="-200"
    x-height="508"
    cap-height="504.5"
    bbox="-2.36352 -109.098 465.1 666"
    underline-thickness="50"
    underline-position="-100"
    unicode-range="U+0020-U+3000"
  />
<missing-glyph horiz-adv-x="364" 
d="M66 33h199v600h-199v-600zM33 0v666h265v-666h-265z" />
    <glyph glyph-name=".notdef" horiz-adv-x="364" 
d="M66 33h199v600h-199v-600zM33 0v666h265v-666h-265z" />
    <glyph glyph-name="space" unicode=" " horiz-adv-x="300" 
 />
    <glyph glyph-name="exclam" unicode="!" horiz-adv-x="227" 
d="M87 44c-4.66699 -6 -6.66699 -10.332 -6 -12.999s4 -4 10 -4c7.33301 -0.666992 13 0.666016 17 3.99902c1.33301 1.33301 2 2.33301 2 3c0 2 -1 4.66699 -3 8c-2 2 -6.33301 2.66699 -13 2h-7zM99 63.001c10 -0.666992 17.3301 -4.33301 21.9971 -11
s6.83398 -13 6.50098 -19s-2.83301 -11 -7.5 -15c-8 -7.33301 -18.333 -10.333 -31 -9c-14.667 0.666992 -23 6.66699 -25 18c-1.33301 5.33301 -0.666016 11 2.00098 17l-2 4c-1.33301 6 1 9.66699 7 11c0.666992 0 1.66699 0.166992 3 0.5s2.33301 0.5 3 0.5l7 7
c4 4 8.33301 3.66699 13 -1c0.666992 -0.666992 1.33398 -1.66699 2.00098 -3zM98.9971 499.002c-5.33301 -52.667 -7 -119 -5 -199c0 -6 0.666992 -34.333 2 -85s2 -89 2 -115c0 -6 -3 -9 -9 -9s-9 3 -9 9c0 26 -0.666992 64.167 -2 114.5s-2 78.833 -2 85.5
c-2 80.667 -0.333008 147.667 5 201c0.666992 6 4 8.66699 10 8s8.66699 -4 8 -10z" />
    <glyph glyph-name="quotedbl" unicode="&#x22;" horiz-adv-x="221" 
d="M73 496c0 -22 -1.66699 -60 -5 -114c-0.666992 -6 -4 -8.66699 -10 -8s-8.66699 4 -8 10c3.33301 52.667 5 90 5 112c0 6 3 9 9 9s9 -3 9 -9zM120 485c-4.66699 -14 -7 -40.667 -7 -80c0 -6 -3 -9 -9 -9s-9 3 -9 9c0 41.333 3 70 9 86c2 5.33301 5.66699 7 11 5
s7 -5.66699 5 -11z" />
    <glyph glyph-name="numbersign" unicode="#" horiz-adv-x="355" 
d="M144 248l4 68.999c-6 -1.33301 -13 -3 -21 -5l-26 -6v-40c0 -9.33301 0.333008 -20.666 1 -33.999c14 6 28 11.333 42 16zM144 228.999c-14.667 -5.33301 -28.668 -10.999 -42.001 -16.999c1.33301 -42.667 2 -74.667 2 -96c0 -6 -3 -9 -9 -9s-9 3 -9 9
c0 20.667 -0.333008 50 -1 88c-11.333 -6 -22 -12.333 -32 -19c-5.33301 -2.66699 -9.5 -1.5 -12.5 3.5s-2.16699 9.16699 2.5 12.5c12.667 8 26.334 15.333 41.001 22c-0.666992 17.333 -1 31.666 -1 42.999v35c-20 -4.66699 -37 -8 -51 -10c-6 -0.666992 -9.33301 2 -10 8
s2 9.33301 8 10c14.667 2 32.334 5.66699 53.001 11c0 36 1.33301 68.333 4 97c0.666992 6 4 8.66699 10 8s8.66699 -4 8 -10c-2.66699 -27.333 -4 -57.666 -4 -90.999l22 6c10 2 19 4 27 6c3.33301 47.333 8 92.666 14 135.999c0.666992 6 4 8.66699 10 8s8.66699 -4 8 -10
c-6 -42 -10.667 -85.667 -14 -131c18.667 3.33301 36 5 52 5c6 0 9 -3 9 -9s-3 -9 -9 -9c-16 0 -33.667 -1.66699 -53 -5c-2 -22 -3.33301 -44.333 -4 -67c29.333 8.66699 56.666 14 81.999 16c6 0.666992 9.33301 -2 10 -8s-2 -9.33301 -8 -10
c-26 -2 -54.333 -7.66699 -85 -17c-2 -45.333 -3 -92.333 -3 -141c0 -6 -3 -9 -9 -9s-9 3 -9 9c0 46.667 1 91.667 3 135z" />
    <glyph glyph-name="dollar" unicode="$" horiz-adv-x="309" 
d="M109 294c-0.666992 22.667 -1.00195 45 -1.00195 67c0 8 0.333008 46 1 114c-13.333 1.33301 -22.666 -4 -27.999 -16s-9.16602 -27.833 -11.499 -47.5s-2.5 -36.5 -0.5 -50.5c2.66699 -16 13 -35 31 -57zM127.998 244c2 -66.667 6.00098 -149 12.001 -247
c15.333 2.66699 28 9.66699 38 21s14.333 25.333 13 42c-4.66699 70 -24.334 129.667 -59.001 179zM105.999 542c0.666992 2 1.33105 4.33203 1.99805 6.99902s1 4.33398 1 5.00098c0 2 0.333008 3.66699 1 5c0.666992 0 1 0.333008 1 1c1.33301 1.33301 3 2.33301 5 3
c3.33301 1.33301 6.33301 0.666016 9 -2.00098c0.666992 -0.666992 1.33398 -1.66699 2.00098 -3v-4v-10v-20v-34c20.667 -7.33301 36 -19 46 -35c2.66699 -5.33301 1.5 -9.5 -3.5 -12.5s-9.16699 -2.16699 -12.5 2.5c-6 10.667 -16 19 -30 25
c-0.666992 -61.333 -1 -97.666 -1 -108.999c0 -28 0.333008 -57.333 1 -88c8.66699 -9.33301 15 -17.333 19 -24c37.333 -52 58.333 -114.333 63 -187c1.33301 -22.667 -4.66699 -41.334 -18 -56.001s-30 -23.667 -50 -27l3 -38c0.666992 -6 -2 -9.33301 -8 -10
s-9.33301 2 -10 8l-3 39c-16.667 0.666992 -31.334 6.16699 -44.001 16.5s-21.334 24.833 -26.001 43.5c-1.33301 6 1 9.66699 7 11s9.66699 -1 11 -7c2.66699 -13.333 8.83398 -23.833 18.501 -31.5s20.5 -12.167 32.5 -13.5c-6.66699 106.667 -11 196.334 -13 269.001
l-23 27c-20 24.667 -31.667 46.667 -35 66c-2.66699 15.333 -2.66699 33.666 0 54.999s7.33398 39 14.001 53c8.66699 18.667 23.334 27.334 44.001 26.001v31v9c-2.66699 2.66699 -3.66699 5.66699 -3 9z" />
    <glyph glyph-name="percent" unicode="%" horiz-adv-x="309" 
d="M63 413v-2v-11v-7v-3c0 -0.666992 1 -1.33398 3 -2.00098c2.66699 -1.33301 5 -0.333008 7 3c4 4.66699 6 10.334 6 17.001c0 6 -1 9.66699 -3 11c-2.66699 0.666992 -7 -1.33301 -13 -6zM64 435c8 2.66699 14.666 2.66895 19.999 0.00195312
c8.66699 -4.66699 13 -13.667 13 -27c0 -10.667 -3 -20 -9 -28c-8 -10.667 -18 -13.334 -30 -8.00098c-7.33301 3.33301 -11.666 8 -12.999 14v8v6v10v7c0 3.33301 1 6 3 8h1l3 6c2.66699 5.33301 6.66699 6.66602 12 3.99902zM145.999 80.002
c3.33301 0.666992 6.66504 0.333008 9.99805 -1c8 -3.33301 13.333 -10.333 16 -21c2.66699 -9.33301 1.83398 -19 -2.49902 -29s-12.5 -16.333 -24.5 -19c-9.33301 -2 -16.666 1.33301 -21.999 10c-4 6 -6 13.667 -6 23c-0.666992 8 0.333008 15.667 3 23
c4 9.33301 9.33301 15 16 17c4 2 7.33301 1 10 -3zM135.998 54.001c-1.33301 -3.33301 -1.66699 -7 -1 -11c0 -6 1 -10.333 3 -13c0.666992 -2 1.66699 -2.66699 3 -2c6 1.33301 10.167 4.5 12.5 9.5s2.83301 10.5 1.5 16.5c-1.33301 4.66699 -3 7.33398 -5 8.00098
c-2 1.33301 -5 -0.333984 -9 -5.00098c-1.33301 -1.33301 -3 -2.33301 -5 -3zM207.997 461.001c-4.66699 -8.66699 -9.5 -21.001 -14.5 -37.001s-8.5 -26.333 -10.5 -31c-10 -26.667 -28 -70.667 -54 -132s-44 -105.333 -54 -132l-8 -28l-8 -31c-8 -26 -17 -45.667 -27 -59
c-3.33301 -5.33301 -7.5 -6.16602 -12.5 -2.49902s-5.5 7.83398 -1.5 12.501c8.66699 12 16.334 30 23.001 54c0.666992 2 3.66699 12 9 30c3.33301 12.667 6.33301 22.667 9 30c11.333 32.667 29 77 53 133c30 70 48.333 113.667 55 131l9 30c6 18 11.333 31.333 16 40
c2.66699 5.33301 6.66699 6.66602 12 3.99902s6.66602 -6.66699 3.99902 -12z" />
    <glyph glyph-name="ampersand" unicode="&#x26;" horiz-adv-x="398" 
d="M113 248c-30.667 -54.667 -48.6641 -102.665 -53.9971 -143.998c-0.666992 -2.66699 -1.33398 -7 -2.00098 -13c-1.33301 -5.33301 -2 -9.33301 -2 -12c-1.33301 -8.66699 -1 -15.334 1 -20.001c4.66699 -10 10.667 -16.333 18 -19s16.666 -2.33398 27.999 0.999023
c21.333 6 45.666 22 72.999 48c6 5.33301 12 11.333 18 18c-26.667 40.667 -51 82.667 -73 126zM114.003 288.002c22.667 40 36.668 74 42.001 102c4.66699 21.333 0 42.333 -14 63c-6 9.33301 -13.333 15.666 -22 18.999s-18.334 2.33301 -29.001 -3
c-8.66699 -4.66699 -14 -13.334 -16 -26.001c-2.66699 -13.333 -1.66699 -30.666 3 -51.999c6.66699 -29.333 18.667 -63.666 36 -102.999zM284.004 -3.99805c-17.333 10.667 -41.999 39.333 -73.999 86l-7 9c-4.66699 -5.33301 -9.66699 -10.666 -15 -15.999
c-29.333 -27.333 -56.333 -44.666 -81 -51.999c-14.667 -4 -27.667 -4 -39 0c-12.667 4.66699 -22 14 -28 28c-3.33301 8 -4.33301 18 -3 30c0 3.33301 0.666992 8 2 14c1.33301 5.33301 2 9 2 11c5.33301 43.333 24.333 94 57 152l5 10c-20.667 46 -34.667 85.667 -42 119
c-5.33301 24 -6.66602 43.667 -3.99902 59c3.33301 18.667 12 31.667 26 39c15.333 8 30 9.33301 44 4c11.333 -4.66699 21.333 -13.334 30 -26.001c16.667 -24.667 22.334 -50.334 17.001 -77.001c-6 -30.667 -22.667 -70 -50 -118l12 -27
c21.333 -41.333 44.666 -81.333 69.999 -120c12 14 21.667 27.667 29 41c6.66699 12 10.667 22 12 30c1.33301 6 0.666016 10 -2.00098 12c-4.66699 4 -5 8.33301 -1 13s8.33301 5 13 1c7.33301 -6.66699 10 -16.667 8 -30c-2 -10 -7 -21.667 -15 -35
c-8.66699 -15.333 -20 -31.333 -34 -48l8 -12c31.333 -45.333 54.666 -72.333 69.999 -81c4.66699 -3.33301 5.5 -7.5 2.5 -12.5s-7.16699 -6.16699 -12.5 -3.5z" />
    <glyph glyph-name="quotesingle" unicode="'" horiz-adv-x="207" 
d="M107 518v-91c0 -6 -3 -9 -9 -9s-9 3 -9 9v91c0 6 3 9 9 9s9 -3 9 -9z" />
    <glyph glyph-name="parenleft" unicode="(" horiz-adv-x="249" 
d="M146 489c-23.333 -20 -40.1689 -51.3281 -50.502 -93.9951s-14.5 -90.667 -12.5 -144c1.33301 -50.667 8 -98.834 20 -144.501s26.667 -80.5 44 -104.5c4 -4.66699 3.5 -8.83398 -1.5 -12.501s-9.16699 -2.83398 -12.5 2.49902
c-19.333 25.333 -35.166 61.666 -47.499 108.999s-19.166 97 -20.499 149c-2 55.333 2.5 105.666 13.5 150.999s29.5 79.333 55.5 102c4.66699 4 9 3.66699 13 -1s3.66699 -9 -1 -13z" />
    <glyph glyph-name="parenright" unicode=")" horiz-adv-x="234" 
d="M67 512c28.667 -41.333 48.3311 -93.6699 58.998 -157.003s11.834 -126.333 3.50098 -189s-24.5 -115.667 -48.5 -159c-2.66699 -5.33301 -6.66699 -6.66602 -12 -3.99902s-6.66602 6.66699 -3.99902 12c22.667 42 38 93.333 46 154s7 121.5 -3 182.5
s-28.333 111.167 -55 150.5c-4 4.66699 -3.5 8.83398 1.5 12.501s9.16699 2.83398 12.5 -2.49902z" />
    <glyph glyph-name="asterisk" unicode="*" horiz-adv-x="344" 
d="M204 514c-4.66699 -2.66699 -8 -4.66602 -10 -5.99902c-3.33301 -2 -7.33301 -4 -12 -6c2.66699 -4.66699 5 -9.33398 7 -14.001c7.33301 12 12.333 20.667 15 26zM120 474.001l25.999 -9l10 -4c0 12.667 -0.333008 22.667 -1 30h-1
c-15.333 -6 -26.666 -11.667 -33.999 -17zM194.999 448.001l-1 1l-3 4l-2 -3l1 -1zM173.999 479.001v-20c1.33301 3.33301 3 7 5 11zM158.999 397.001c-2.66699 11.333 -3.99902 26.665 -3.99902 45.998l-15 5l-27 9c-4 2 -7 3.33301 -9 4
c-1.33301 0.666992 -2.33301 1 -3 1c-0.666992 0.666992 -1.33398 1 -2.00098 1c-1.33301 1.33301 -2.33301 2.66602 -3 3.99902c-3.33301 5.33301 -2 10.666 4 15.999c0.666992 0 3 1.33301 7 4c9.33301 6.66699 22.666 13.334 39.999 20.001l5 2
c-3.33301 13.333 -6.33301 24.333 -9 33l-6 12h-1v2v3c0 4 2 6.66699 6 8c2.66699 1.33301 5 1 7 -1l3 -2v-1c0.666992 -0.666992 1.33398 -1.66699 2.00098 -3c2 -3.33301 3.66699 -6 5 -8l1 -4l14 -30c4.66699 2 8.66699 4 12 6
c0.666992 0.666992 6.66699 5.33398 18 14.001c4.66699 3.33301 8.33398 5.33301 11.001 6c4.66699 2 8.66699 1.33301 12 -2c2 -3.33301 2.66699 -7 2 -11c-2.66699 -11.333 -12.334 -31.333 -29.001 -60l8 -12c5.33301 -6.66699 12.333 -13.667 21 -21l8 -6
c1.33301 -1.33301 2.33301 -2.16602 3 -2.49902s1.33398 -0.833008 2.00098 -1.5s1 -1.66699 1 -3c1.33301 -2 1.33301 -4.33301 0 -7s-3.33301 -4.33398 -6 -5.00098h-3h-1c-0.666992 0 -1.33398 0.333008 -2.00098 1c-0.666992 0 -1.66699 0.333008 -3 1l-9 4l-35 14h-1
c-2 -7.33301 -3 -14.666 -3 -21.999c0 -3.33301 -1.33301 -5.66602 -4 -6.99902c0 -1.33301 0.333008 -2.33301 1 -3c1.33301 -6 -1 -9.66699 -7 -11s-9.66699 1 -11 7z" />
    <glyph glyph-name="plus" unicode="+" horiz-adv-x="362" 
d="M19 230c2.66699 2 8.00195 3.66504 16.002 4.99805l26 5c10.667 1.33301 22.667 3 36 5c-0.666992 31.333 -1 57.333 -1 78c0.666992 12 1 21.667 1 29c1.33301 9.33301 2.66602 15.333 3.99902 18c3.33301 5.33301 7.5 6.5 12.5 3.5s6.16699 -6.83301 3.5 -11.5l-2 -11
c0 -7.33301 -0.333008 -16.666 -1 -27.999c0 -20.667 0.333008 -46 1 -76l17 2c59.333 6.66699 99.666 10 120.999 10c6 0 9 -3 9 -9s-3 -9 -9 -9c-19.333 0 -59 -3.33301 -119 -10l-18 -2c2 -64 4.66699 -103.667 8 -119c1.33301 -6 -1 -9.66699 -7 -11s-9.66699 1 -11 7
c-3.33301 15.333 -6 55.666 -8 120.999c-12.667 -1.33301 -24 -3 -34 -5c-10 -1.33301 -18.167 -2.66602 -24.5 -3.99902s-10.5 -2.66602 -12.5 -3.99902c-4.66699 -2.66699 -8.5 -1.5 -11.5 3.5s-1.83301 9.16699 3.5 12.5z" />
    <glyph glyph-name="comma" unicode="," horiz-adv-x="244" 
d="M114 68c21.333 -16 31.3311 -41.668 29.998 -77.001c-0.666992 -29.333 -7.66699 -55.666 -21 -78.999c-3.33301 -5.33301 -7.5 -6.5 -12.5 -3.5s-6.16699 6.83301 -3.5 11.5c12 21.333 18.333 45.333 19 72c1.33301 29.333 -6 50 -22 62
c-5.33301 3.33301 -6.16602 7.5 -2.49902 12.5s7.83398 5.5 12.501 1.5z" />
    <glyph glyph-name="hyphen" unicode="-" horiz-adv-x="276" 
d="M43 281c14 0 34.667 0.5 62 1.5s48 1.5 62 1.5c6 0 9 -3 9 -9s-3 -9 -9 -9c-14 0 -34.667 -0.5 -62 -1.5s-48 -1.5 -62 -1.5c-6 0 -9 3 -9 9s3 9 9 9z" />
    <glyph glyph-name="period" unicode="." horiz-adv-x="224" 
d="M118 39c4.66699 -2 6.66895 -5.33301 6.00195 -10c-0.666992 -7.33301 -2.33398 -12.666 -5.00098 -15.999c-3.33301 -3.33301 -7 -4.33301 -11 -3c-3.33301 0.666992 -6 2.66699 -8 6c-4.66699 8 -4 18.333 2 31c2.66699 5.33301 6.66699 6.66602 12 3.99902
s6.66602 -6.66699 3.99902 -12z" />
    <glyph glyph-name="slash" unicode="/" horiz-adv-x="319" 
d="M20 16c0 12.667 2 26.998 6 42.998s7.66699 28.833 11 38.5s9 23.834 17 42.501l16 35c4.66699 12.667 12.667 35.667 24 69c10.667 31.333 19.667 54.666 27 69.999c4 9.33301 11 24.666 21 45.999l24 52c6 12.667 12.667 28 20 46c6.66699 18 11.667 35 15 51
c1.33301 6 5 8.33301 11 7s8.33301 -5 7 -11c-4 -16 -9.5 -33.5 -16.5 -52.5s-13.5 -35.167 -19.5 -48.5l-25 -52c-10 -21.333 -17 -36.666 -21 -45.999c-7.33301 -16 -16 -38.667 -26 -68c-12.667 -36.667 -21 -59.667 -25 -69c-2 -6 -7 -18.167 -15 -36.5
s-13.667 -32.166 -17 -41.499s-6.83301 -21.166 -10.5 -35.499s-5.5 -27.5 -5.5 -39.5c0 -6 -3 -9 -9 -9s-9 3 -9 9z" />
    <glyph glyph-name="zero" unicode="0" horiz-adv-x="321" 
d="M94 457c-9.33301 -33.333 -15.002 -79.333 -17.002 -138c-3.33301 -74 -1.66602 -138.667 5.00098 -194c3.33301 -29.333 8 -52.666 14 -69.999c4.66699 -14.667 9.66699 -25.334 15 -32.001c4.66699 -6 9.66699 -8.33301 15 -7
c8.66699 3.33301 16.334 14.666 23.001 33.999c2 6 4.33301 14.667 7 26c3.33301 11.333 5.33301 19 6 23c51.333 146.667 55.333 272.334 12 377.001c-9.33301 20.667 -22 29.334 -38 26.001c-6.66699 -1.33301 -13 -5.33301 -19 -12s-10 -15.334 -12 -26.001
c-1.33301 -6 -5 -8.33301 -11 -7zM109.998 508c6.66699 6 14.332 9.99707 22.999 11.9971c11.333 2.66699 22.166 0.666992 32.499 -6s18.5 -17.334 24.5 -32.001c45.333 -109.333 42 -239 -10 -389c-1.33301 -3.33301 -3.66602 -10.666 -6.99902 -21.999
c-2.66699 -11.333 -5 -20.333 -7 -27c-8.66699 -24 -20 -38.667 -34 -44c-13.333 -5.33301 -25 -1.66602 -35 11.001c-7.33301 8.66699 -13.666 21.667 -18.999 39c-5.33301 18.667 -10 43 -14 73c-6.66699 54.667 -8.33398 120.334 -5.00098 197.001
c4 94 16.333 156.333 37 187c3.33301 4.66699 7.33301 5.33398 12 2.00098c0.666992 0 1.33398 -0.333008 2.00098 -1z" />
    <glyph glyph-name="one" unicode="1" horiz-adv-x="205" 
d="M101 497c-3.33301 -12.667 -5.33398 -26.833 -6.00098 -42.5s-1 -30.167 -1 -43.5c0.666992 -12.667 0.666992 -27.667 0 -45c-3.33301 -90.667 -4.66602 -147 -3.99902 -169c0.666992 -16.667 3.33398 -47 8.00098 -91c4.66699 -38.667 7 -69.667 7 -93
c0 -6 -3 -9 -9 -9s-9 3 -9 9c0 22.667 -2 53 -6 91c-5.33301 44 -8.33301 75 -9 93c-0.666992 22 0.666016 78.333 3.99902 169c0.666992 17.333 0.666992 32 0 44c0 13.333 0.5 28.5 1.5 45.5s2.83301 32.167 5.5 45.5c1.33301 6 5 8.33301 11 7s8.33301 -5 7 -11z" />
    <glyph glyph-name="two" unicode="2" horiz-adv-x="259" 
d="M41 387c2 30.667 5.99512 53.3301 11.9951 67.9971c10.667 28.667 29 44.667 55 48c18.667 2.66699 32 -2.33301 40 -15c4.66699 -8 6.33398 -21 5.00098 -39c-1.33301 -15.333 -4.66602 -35 -9.99902 -59c-6 -28 -19.667 -79.333 -41 -154
c-28 -96.667 -42.333 -146 -43 -148c-6 -22 -10 -39 -12 -51c-1.33301 -6 -2 -10.667 -2 -14h9c8.66699 -0.666992 20.334 -1 35.001 -1h61c6 0 9 -3 9 -9s-3 -9 -9 -9h-61c-15.333 0 -27.333 0.333008 -36 1h-12c-1.33301 0 -2.66602 0.333008 -3.99902 1h-2
c-2 0.666992 -3.66699 1.66699 -5 3c-2.66699 3.33301 -3.66699 8.33301 -3 15c0 4 0.666992 9.66699 2 17c2 12 6.33301 29 13 51c0.666992 2.66699 15 52.334 43 149.001c19.333 67.333 33 118.333 41 153c4.66699 22.667 7.66699 41.334 9 56.001
c0.666992 14.667 -0.333008 24 -3 28c-3.33301 6 -10.666 8.33301 -21.999 7c-18.667 -2.66699 -32 -14.667 -40 -36c-5.33301 -13.333 -9 -34.666 -11 -63.999c-0.666992 -6 -4 -8.66699 -10 -8s-8.66699 4 -8 10z" />
    <glyph glyph-name="three" unicode="3" horiz-adv-x="289" 
d="M52 495l19.0049 -0.000976562c16.667 0.666992 27 1 31 1c13.333 0 23.666 -0.333008 30.999 -1c4.66699 0 8.33398 -0.333008 11.001 -1c4.66699 -0.666992 8.16699 -2.16699 10.5 -4.5s3.5 -5.5 3.5 -9.5c0 -2 -0.333008 -4.33301 -1 -7
c-0.666992 -4 -2.33398 -9.33301 -5.00098 -16c-4 -12 -10 -27.333 -18 -46c-17.333 -39.333 -30 -64.666 -38 -75.999l-17 -25v-1c10 2.66699 18 4 24 4c26 0.666992 49.333 -15.333 70 -48c15.333 -25.333 19.666 -61 12.999 -107
c-5.33301 -40.667 -17.333 -76.667 -36 -108c-8.66699 -15.333 -18 -26.666 -28 -33.999c-12.667 -8.66699 -24.834 -10.667 -36.501 -6s-21.5 16.167 -29.5 34.5s-14.333 43.5 -19 75.5c-0.666992 6 2 9.33301 8 10s9.33301 -2 10 -8c4 -30 10 -53.667 18 -71
c6 -13.333 12.333 -21.333 19 -24c6 -2.66699 12.333 -1.33398 19 3.99902c8 6 16 15.667 24 29c17.333 28.667 28.666 62.334 33.999 101.001c5.33301 41.333 1.33301 72.666 -12 93.999c-16.667 27.333 -34.667 40.666 -54 39.999c-4 0 -11.333 -1.33301 -22 -4
c-10.667 -2 -18.334 -1.66699 -23.001 1c-3.33301 1.33301 -5 3.66602 -5 6.99902v3c0 0.666992 0.333008 1.33398 1 2.00098s1 1.33398 1 2.00098l2 3l7 11l18 25c6 10 17.667 34.333 35 73c8 18.667 14 33.667 18 45c2 5.33301 3.33301 10 4 14h-8
c-6.66699 0.666992 -16 1 -28 1c-4 0 -14.333 -0.333008 -31 -1h-22c-6 0.666992 -8.66699 4 -8 10s4 8.66699 10 8z" />
    <glyph glyph-name="four" unicode="4" horiz-adv-x="315" 
d="M154 493l-51 -135l-31 -80l-9 -26h8h46c10.667 0.666992 26 1 46 1c-4.66699 115.333 -7 201 -7 257c0 6 3 9 9 9s9 -3 9 -9c0 -56 2.33301 -141.667 7 -257h25c6 0 9 -3 9 -9s-3 -9 -9 -9h-25c4 -96.667 6 -172.334 6 -227.001c0 -6 -3 -9 -9 -9s-9 3 -9 9
c0 54.667 -2 130.334 -6 227.001c-20.667 0 -36 -0.333008 -46 -1h-46c-6.66699 0 -11.667 0.333008 -15 1h-4h-2h-2c0 0.666992 -0.333008 1 -1 1c-2 1.33301 -3.33301 2.66602 -4 3.99902l-1 6v1c0.666992 0.666992 1 1.66699 1 3c0.666992 2 1.66699 4.66699 3 8l9 26
l31 80l52 135c2 6 5.83301 7.83301 11.5 5.5s7.16699 -6.16602 4.5 -11.499z" />
    <glyph glyph-name="five" unicode="5" horiz-adv-x="299" 
d="M193 493c-13.333 -4 -37.002 -4.66992 -71.002 -2.00293c-28 1.33301 -46 0.666016 -54 -2.00098v-1c-0.666992 -2.66699 -1.33398 -6.33398 -2.00098 -11.001c-0.666992 -9.33301 -1 -21.666 -1 -36.999v-28v-24v-14v-12c0 -4 0.166992 -8.66699 0.5 -14
s0.5 -9.33301 0.5 -12c0 -13.333 -0.333008 -24.333 -1 -33c16.667 12.667 33.334 18 50.001 16c16 -2 29.667 -12.667 41 -32c9.33301 -14.667 17 -34 23 -58c11.333 -45.333 15 -83.666 11 -114.999c-3.33301 -22.667 -11.833 -44.5 -25.5 -65.5
s-29.167 -35.5 -46.5 -43.5c-20.667 -10 -38.334 -8 -53.001 6c-15.333 14 -25 40 -29 78c-0.666992 6 2 9.33301 8 10s9.33301 -2 10 -8c3.33301 -33.333 11 -55.666 23 -66.999c9.33301 -8.66699 20.666 -9.66699 33.999 -3c14 6.66699 27 19.167 39 37.5
s19.333 37.5 22 57.5c4 29.333 0.666992 65.333 -10 108c-6 22.667 -13 40.667 -21 54c-8.66699 14 -18 21.667 -28 23c-7.33301 1.33301 -15.333 -0.166992 -24 -4.5s-16 -10.166 -22 -17.499l-1 -3c-0.666992 -2.66699 -1.66699 -4.66699 -3 -6
c-2.66699 -3.33301 -6 -4.66602 -10 -3.99902c-3.33301 0.666992 -5.66602 2.33398 -6.99902 5.00098c-0.666992 0.666992 -1.16699 1.66699 -1.5 3s-0.5 3 -0.5 5s0.333008 4.66699 1 8c0.666992 2.66699 1 5.33398 1 8.00098l1 3
c1.33301 1.33301 1.66602 13.666 0.999023 36.999c0 0.666992 -0.166992 6 -0.5 16s-0.5 17.667 -0.5 23v14v24v28c0 16 0.333008 28.667 1 38c0.666992 6 1.33398 10.667 2.00098 14c0.666992 2.66699 1.33398 4.66699 2.00098 6c1.33301 2.66699 3.33301 4.66699 6 6
c10.667 5.33301 32.334 7 65.001 5c32 -2.66699 53.333 -2 64 2c6 1.33301 9.83301 -0.833984 11.5 -6.50098s-0.166016 -9.5 -5.49902 -11.5z" />
    <glyph glyph-name="six" unicode="6" horiz-adv-x="324" 
d="M178 487c-40.667 -46 -72.0049 -102.331 -94.0049 -168.998s-29.333 -129.334 -22 -188.001c4.66699 -37.333 13.334 -66 26.001 -86c17.333 -26.667 41.333 -35.667 72 -27c17.333 4.66699 30.333 18.334 39 41.001s10.334 46 5.00098 70
c-6.66699 24.667 -19.667 41.667 -39 51c-23.333 11.333 -53.666 9.66602 -90.999 -5.00098c-5.33301 -2.66699 -9.16602 -1.16699 -11.499 4.5s-0.5 9.5 5.5 11.5c42 17.333 77 19 105 5c24.667 -12 40.667 -33 48 -63c6.66699 -27.333 5 -54 -5 -80
c-10.667 -28.667 -28 -46.334 -52 -53.001c-38.667 -10.667 -69 1 -91 35c-14 22.667 -23.667 54 -29 94c-7.33301 61.333 0.333984 126.5 23.001 195.5s55 127.5 97 175.5c4 4.66699 8.33301 5 13 1s5 -8.33301 1 -13z" />
    <glyph glyph-name="seven" unicode="7" horiz-adv-x="306" 
d="M51 497c2.66699 0.666992 11.6689 1.33496 27.002 2.00195c9.33301 0.666992 25.666 1.33398 48.999 2.00098c17.333 0.666992 32.666 1.33398 45.999 2.00098h16h5h1h1c2 -0.666992 3.66699 -1.33398 5 -2.00098c3.33301 -2.66699 5 -7 5 -13
c0.666992 -4 0.666992 -9 0 -15c-1.33301 -9.33301 -4 -21 -8 -35c-4 -14.667 -10 -34 -18 -58c-30 -90.667 -47.667 -172.334 -53 -245.001c0 -3.33301 -0.5 -13.166 -1.5 -29.499s-1.83301 -28.333 -2.5 -36s-1.83398 -17.834 -3.50098 -30.501
s-3.83398 -23.667 -6.50098 -33c-2 -6 -5.83301 -8.16699 -11.5 -6.5s-7.83398 5.16699 -6.50098 10.5c2.66699 9.33301 4.83398 20 6.50098 32s2.83398 21.667 3.50098 29s1.5 19 2.5 35s1.5 26.333 1.5 31c5.33301 76.667 23 159.667 53 249
c8.66699 24 14.834 42.833 18.501 56.5s6.16699 24.834 7.5 33.501c0.666992 3.33301 1 6.33301 1 9h-15c-13.333 -0.666992 -29 -1.33398 -47 -2.00098c-19.333 -0.666992 -35.333 -1.33398 -48 -2.00098c-14 -0.666992 -22 -1.33398 -24 -2.00098
c-6 -1.33301 -9.66699 1 -11 7s1 9.66699 7 11z" />
    <glyph glyph-name="eight" unicode="8" horiz-adv-x="323" 
d="M92 274c8.66699 -2.66699 19.665 -1.66602 32.998 3.00098c14.667 4 27 17.333 37 40c10.667 22.667 16.334 47.334 17.001 74.001c0.666992 28 -5 50 -17 66c-11.333 16 -27.666 24 -48.999 24c-11.333 -14 -21.666 -33.667 -30.999 -59
c-9.33301 -24.667 -15 -49.334 -17 -74.001c-2.66699 -28.667 0.666016 -49.334 9.99902 -62.001c2.66699 -4 6 -7 10 -9c2.66699 0 5 -1 7 -3zM64.998 224.001c-6.66699 -16 -12.3359 -35.3301 -17.0029 -57.9971c-9.33301 -48 -10.666 -85.333 -3.99902 -112
c6 -24.667 23.667 -40.334 53 -47.001c28.667 -6.66699 53.334 -2.83398 74.001 11.499s32 38.166 34 71.499c2.66699 31.333 -3 62.333 -17 93c-14 31.333 -31.667 51.333 -53 60c-23.333 9.33301 -46.666 3 -69.999 -19zM49.9961 234.004
c5.33301 13.333 11.666 23.9971 18.999 31.9971c-3.33301 2.66699 -6 6 -8 10c-12 16 -16.667 40.667 -14 74c2 23.333 7.5 47.833 16.5 73.5s19.5 46.834 31.5 63.501c-0.666992 0.666992 -1 1.33398 -1 2.00098c-0.666992 6 2 9.33301 8 10h2l5 5
c4 4 8.33301 3.66699 13 -1l2 -4c22 -3.33301 39.333 -13.666 52 -30.999c14.667 -19.333 21.667 -45 21 -77c-0.666992 -29.333 -6.66699 -56.666 -18 -81.999c-11.333 -24 -25.666 -40 -42.999 -48c2 0 3.66699 -0.333008 5 -1c26 -10.667 47 -33.667 63 -69
c15.333 -34 21.666 -68.333 18.999 -103c-2.66699 -38.667 -16.667 -66.667 -42 -84c-24.667 -17.333 -54 -22.333 -88 -15c-36.667 8.66699 -59 29 -67 61c-6.66699 28.667 -5 68.667 5 120c4 23.333 9.66699 43.666 17 60.999c0.666992 1.33301 1.33398 2.33301 2.00098 3
z" />
    <glyph glyph-name="nine" unicode="9" horiz-adv-x="288" 
d="M164 481c-4.66699 -0.666992 -11.5 -1.5 -20.5 -2.5s-15.167 -1.83301 -18.5 -2.5c-22 -4 -37.333 -10 -46 -18c-3.33301 -2.66699 -6.5 -6.5 -9.5 -11.5s-5.16699 -8.83301 -6.5 -11.5s-3.66602 -8 -6.99902 -16s-5.33301 -12.667 -6 -14
c-8.66699 -21.333 -12.334 -38.333 -11.001 -51c0.666992 -10 5 -17.333 13 -22c12 -8 40.333 -12 85 -12c2 0 4 -0.666992 6 -2c1.33301 32 3.33301 60.333 6 85c4 34 9 60 15 78zM187 488c-8 -13.333 -14.666 -42.334 -19.999 -87.001
c-4.66699 -38.667 -7.33398 -86.667 -8.00098 -144c-2 -122.667 3 -205 15 -247c1.33301 -5.33301 -0.833984 -8.83301 -6.50098 -10.5s-9.5 0.5 -11.5 6.5c-12 44 -17 127.667 -15 251c0 16 0.333008 31.667 1 47c-1.33301 -1.33301 -3 -2 -5 -2c-48 0 -79.667 5 -95 15
c-12.667 8 -19.667 19.667 -21 35s3 35 13 59c0.666992 2 2 5.66699 4 11l6 14c1.33301 3.33301 3.16602 7.33301 5.49902 12s5 9 8 13s6.16699 7.66699 9.5 11c11.333 10 29.666 17 54.999 21c4.66699 1.33301 10.834 2.33301 18.501 3s14.334 1.5 20.001 2.5
s10.834 2.16699 15.501 3.5h3c1.33301 0 3 -0.333008 5 -1c4.66699 -3.33301 5.66699 -7.66602 3 -12.999z" />
    <glyph glyph-name="colon" unicode=":" horiz-adv-x="263" 
d="M155 303c4.66699 -3.33301 5.66602 -7.33008 2.99902 -11.9971c-4.66699 -6.66699 -10 -10.334 -16 -11.001c-7.33301 -0.666992 -12.333 2.66602 -15 9.99902c-1.33301 6 -0.166016 11.667 3.50098 17s9.5 9.33301 17.5 12c5.33301 2.66699 9 1 11 -5
c2 -4.66699 0.666992 -8.33398 -4 -11.001zM141.999 180.003c2 1.33301 4 3 6 5c4 4.66699 8.16699 4.83398 12.5 0.500977s4.16602 -8.5 -0.500977 -12.5c-1.33301 -2 -2.66602 -3.66699 -3.99902 -5c0.666992 0 1 -0.333008 1 -1
c0.666992 -7.33301 -2.66602 -12 -9.99902 -14c-4.66699 -0.666992 -8.33398 0.666016 -11.001 3.99902c-1.33301 2 -2 4.33301 -2 7c-2.66699 2.66699 -3.66699 6 -3 10c2 5.33301 5.66699 7.33301 11 6z" />
    <glyph glyph-name="semicolon" unicode=";" horiz-adv-x="294" 
d="M154 313l4.00195 -2c4.66699 -3.33301 6.33398 -7.66602 5.00098 -12.999c-0.666992 -3.33301 -2.33398 -6 -5.00098 -8c-2.66699 -1.33301 -5.33398 -2.33301 -8.00098 -3c-9.33301 -2.66699 -15.333 -0.333984 -18 6.99902c-3.33301 6 -1.66602 14.667 5.00098 26
c3.33301 4.66699 7.66602 5.66699 12.999 3c3.33301 -2.66699 4.66602 -6 3.99902 -10zM174.002 190c18 -14.667 24 -35.002 18 -61.002c-4 -19.333 -13.667 -37.666 -29 -54.999c-4 -4.66699 -8.33301 -5 -13 -1s-5 8.33301 -1 13c13.333 14.667 22 30.334 26 47.001
c4 18.667 -0.333008 33 -13 43c-4.66699 4 -5 8.33301 -1 13s8.33301 5 13 1z" />
    <glyph glyph-name="less" unicode="&#x3c;" horiz-adv-x="304" 
d="M62 256c47.333 -84.667 90.668 -142.003 130.001 -172.003c5.33301 -3.33301 6.16602 -7.5 2.49902 -12.5s-7.83398 -5.5 -12.501 -1.5c-41.333 30.667 -85.666 88 -132.999 172c-0.666992 -0.666992 -1.33398 -1 -2.00098 -1c-6 -0.666992 -9.33301 2 -10 8
s1 13.333 5 22c2.66699 7.33301 7.33398 16 14.001 26c10 16.667 24.667 37.334 44 62.001c26.667 34 56 68.667 88 104c4 4.66699 8.33301 5 13 1s5 -8.33301 1 -13c-32 -35.333 -61.333 -69.666 -88 -102.999c-18.667 -24 -33 -44 -43 -60
c-6 -9.33301 -10.333 -17.333 -13 -24c0 -1.33301 -0.333008 -2.66602 -1 -3.99902c2 -0.666992 3.66699 -2 5 -4z" />
    <glyph glyph-name="equal" unicode="=" horiz-adv-x="341" 
d="M59 294c15.333 -2.66699 43.6689 -2.33203 85.002 1.00098c39.333 2.66699 69.666 0.666992 90.999 -6c5.33301 -2 7.16602 -5.83301 5.49902 -11.5s-5.5 -7.83398 -11.5 -6.50098c-18.667 6.66699 -46.334 8.66699 -83.001 6c-43.333 -4 -73.666 -4.33301 -90.999 -1
c-5.33301 1.33301 -7.5 4.83301 -6.5 10.5s4.5 8.16699 10.5 7.5zM61.0029 225.002c12.667 -1.33301 34.667 -1 66 1c30 1.33301 53.333 0.666016 70 -2.00098c6 -1.33301 8.5 -4.83301 7.5 -10.5s-4.16699 -8.16699 -9.5 -7.5c-16 2.66699 -38.333 3.33398 -67 2.00098
c-32 -2 -55 -2.33301 -69 -1c-6 0.666992 -8.66699 4 -8 10s4 8.66699 10 8z" />
    <glyph glyph-name="greater" unicode="&#x3e;" 
d="M43 62c15.333 33.333 42.332 69.3311 80.999 107.998l48 46l33 32c-5.33301 6.66699 -13.666 15.667 -24.999 27s-19 19.333 -23 24c-12 13.333 -24.333 28.333 -37 45l-41 54l-35 45c-4 5.33301 -3.5 9.83301 1.5 13.5s9.16699 3.16699 12.5 -1.5l35 -47l41 -53
c12.667 -16 25 -30.667 37 -44c2.66699 -3.33301 9.66699 -10.666 21 -21.999s19.666 -20.333 24.999 -27l1 1c4 4.66699 8.33301 5 13 1s5 -8.33301 1 -13l-6 -7c-0.666992 -2 -2 -4 -4 -6c-0.666992 0 -1.66699 -0.333008 -3 -1l-34 -34l-48 -46
c-37.333 -36.667 -63.333 -71 -78 -103c-2.66699 -5.33301 -6.66699 -6.66602 -12 -3.99902s-6.66602 6.66699 -3.99902 12z" />
    <glyph glyph-name="question" unicode="?" horiz-adv-x="338" 
d="M119 33c1.33301 2 3 5.00098 5 9.00098c-2 0 -4 -0.333008 -6 -1c-0.666992 -1.33301 -0.666992 -3.33301 0 -6c0 -0.666992 0.333008 -1.33398 1 -2.00098zM137 46.001c4 -3.33301 5 -7.33203 3 -11.999c-5.33301 -12.667 -12.333 -19 -21 -19
c-8.66699 -0.666992 -14.667 4 -18 14c-2.66699 8.66699 -1.66699 16 3 22c5.33301 8 14.333 10.667 27 8c6 -1.33301 8.33301 -5 7 -11c-0.666992 -0.666992 -1 -1.33398 -1 -2.00098zM37 361.002c1.33301 3.33301 3.50293 10.333 6.50293 21s5.5 18.834 7.5 24.501
s4.83301 12.667 8.5 21s8 16 13 23s10.833 13.5 17.5 19.5c23.333 20.667 50.333 34.667 81 42c18 4 33 3.33301 45 -2c14 -7.33301 21.333 -21.333 22 -42c0.666992 -17.333 -2 -36 -8 -56c-6 -19.333 -12 -34.833 -18 -46.5s-15 -27.834 -27 -48.501
s-21 -36.834 -27 -48.501s-11.833 -26.5 -17.5 -44.5s-8.5 -35.333 -8.5 -52c0 -6 -3 -9 -9 -9s-9 3 -9 9c0 18 3.16699 37 9.5 57s12.5 35.833 18.5 47.5s15.333 28.167 28 49.5c11.333 20 20 35.833 26 47.5s11.667 26.334 17 44.001s7.66602 34.5 6.99902 50.5
c-0.666992 13.333 -5 22 -13 26c-7.33301 3.33301 -18 3.33301 -32 0c-28 -6.66699 -52.333 -19.334 -73 -38.001c-6 -4.66699 -11 -10 -15 -16s-7.66699 -12.833 -11 -20.5s-5.83301 -14 -7.5 -19s-3.83398 -12.5 -6.50098 -22.5l-7 -23
c-2 -5.33301 -5.83301 -7.16602 -11.5 -5.49902s-7.83398 5.5 -6.50098 11.5z" />
    <glyph glyph-name="at" unicode="@" horiz-adv-x="312" 
d="M144 293c-8.66699 8 -16 11.332 -22 9.99902c-5.33301 -0.666992 -10 -4.33398 -14 -11.001c-4.66699 -7.33301 -7 -15 -7 -23c-0.666992 -8 0.333008 -13 3 -15l3 -3c1.33301 2.66699 2.66602 8 3.99902 16c0 0.666992 0.166992 1.83398 0.5 3.50098
s0.666016 3 0.999023 4s0.5 2.16699 0.5 3.5c0.666992 4.66699 1.66699 8 3 10c2.66699 3.33301 6 4.66602 10 3.99902c3.33301 0 6 -1.66699 8 -5c2 -2 4 -6.33301 6 -13c4.66699 -11.333 9.66699 -18.333 15 -21c6 -2.66699 13 -0.333984 21 6.99902
c13.333 14.667 19.5 29 18.5 43s-7.83301 26 -20.5 36c-10 10.667 -24.167 16 -42.5 16s-35.166 -7.33301 -50.499 -22c-14 -12.667 -22.667 -29.334 -26 -50.001s-1 -38.667 7 -54c6.66699 -17.333 17 -28.666 31 -33.999c15.333 -6.66699 33 -4.66699 53 6
c5.33301 2.66699 9.33301 1.33398 12 -3.99902s1.33398 -9.33301 -3.99902 -12c-24.667 -13.333 -47.334 -15.666 -68.001 -6.99902c-18 7.33301 -31.667 22 -41 44c-8.66699 18 -11.167 39.333 -7.5 64s14.167 45 31.5 61c18.667 17.333 39.5 26 62.5 26
s41.167 -6.66699 54.5 -20c16 -13.333 24.667 -29.5 26 -48.5s-6.66699 -37.833 -24 -56.5c-14 -14 -27.333 -17.667 -40 -11c-8 3.33301 -14.667 10.333 -20 21c-2 -8 -4.33301 -14 -7 -18c-4 -5.33301 -8.66699 -7.66602 -14 -6.99902c-4.66699 0 -9.66699 2.33301 -15 7
c-6.66699 6.66699 -9.66699 16.667 -9 30c0.666992 11.333 3.66699 21.666 9 30.999c7.33301 11.333 16.333 18 27 20c12.667 2 25 -3.33301 37 -16c4.66699 -4 4.83398 -8.16699 0.500977 -12.5s-8.5 -4.16602 -12.5 0.500977z" />
    <glyph glyph-name="A" unicode="A" horiz-adv-x="346" 
d="M110 181c17.333 5.33301 49.334 11.333 96.001 18c2 0 4 -0.333008 6 -1c-8 55.333 -19.333 117 -34 185l-6 31c-2 15.333 -4.33301 28.5 -7 39.5s-6 20.833 -10 29.5v-3c-2 -12 -4.33301 -29.5 -7 -52.5s-4.33398 -35.833 -5.00098 -38.5c-10 -72.667 -21 -142 -33 -208
zM62.001 8c0 9.33301 0.666992 19.665 2 30.998s2.66602 20.333 3.99902 27l6 30c3.33301 14.667 5.33301 24 6 28c17.333 82.667 32.333 171.667 45 267c0.666992 2.66699 2.33398 15.834 5.00098 39.501s5 41.5 7 53.5v2v4v6c-0.666992 9.33301 2.33301 15.666 9 18.999
c3.33301 2 7 1.66699 11 -1c2 -0.666992 3.66699 -2 5 -4c0 -1.33301 0.666992 -2.66602 2 -3.99902l1 -2c6 -10 10.833 -21.333 14.5 -34s7.16699 -29 10.5 -49s5.33301 -31.333 6 -34c33.333 -157.333 50 -290.333 50 -399c0 -6 -3 -9 -9 -9s-9 3 -9 9
c0 59.333 -4.66699 124.666 -14 195.999c-2 -1.33301 -4 -2.33301 -6 -3c-47.333 -6.66699 -79.333 -13 -96 -19h-6l-8 -42c-1.33301 -4 -3.5 -13 -6.5 -27s-5 -24.167 -6 -30.5s-2.16699 -14.666 -3.5 -24.999s-2 -20.166 -2 -29.499c0 -6 -3 -9 -9 -9s-9 3 -9 9z" />
    <glyph glyph-name="B" unicode="B" horiz-adv-x="338" 
d="M73 213c6.66699 6.66699 11.668 13 15.001 19c5.33301 8 13.333 21.333 24 40l14 26l16 27c3.33301 6 7.5 14 12.5 24s9.16699 19.5 12.5 28.5s6 17.833 8 26.5c5.33301 21.333 5.66602 38 0.999023 50c-4 9.33301 -11.333 15.333 -22 18
c-22 6 -48.667 -0.333008 -80 -19c-0.666992 -6.66699 -0.666992 -14.667 0 -24v-11c0 -3.33301 0.166992 -7.33301 0.5 -12s0.5 -8 0.5 -10c0.666992 -14 1 -25 1 -33c-1.33301 -43.333 -2.33301 -93.333 -3 -150zM117.001 244c9.33301 6.66699 18.999 11.333 28.999 14
c35.333 7.33301 61 0.333008 77 -21c14.667 -19.333 18.667 -45 12 -77c-6 -32 -21 -62 -45 -90s-54 -47.333 -90 -58c-5.33301 -1.33301 -8.83301 0.833984 -10.5 6.50098s0.5 9.5 6.5 11.5c32 8.66699 58.833 25.834 80.5 51.501s35.5 52.834 41.5 81.501
c5.33301 27.333 2.33301 48.333 -9 63c-12 15.333 -31.667 20 -59 14c-10 -2 -20.667 -8 -32 -18c-15.333 -13.333 -26.333 -21.666 -33 -24.999c-2 -0.666992 -3.33301 -1.33398 -4 -2.00098s-1.66699 -1 -3 -1h-3c-0.666992 0 -1.33398 0.333008 -2.00098 1
c0 -20.667 0.166992 -51.334 0.5 -92.001s0.5 -71.334 0.5 -92.001c0 -6 -3 -9 -9 -9s-9 3 -9 9c0 199.333 0.666992 316.666 2 351.999c0 8 -0.333008 18.667 -1 32l-1 13v21c-1.33301 28.667 0.666992 51.334 6 68.001c2 5.33301 5.83301 7.16602 11.5 5.49902
s7.83398 -5.5 6.50098 -11.5c-2 -5.33301 -3.66699 -11 -5 -17c32.667 16.667 60.667 22 84 16c16 -4.66699 27.333 -14.334 34 -29.001c6 -15.333 6 -35.666 0 -60.999c-2.66699 -9.33301 -5.66699 -18.833 -9 -28.5s-7.66602 -19.5 -12.999 -29.5l-13 -26l-16 -27.5
c-7.33301 -12.333 -12 -20.5 -14 -24.5z" />
    <glyph glyph-name="C" unicode="C" horiz-adv-x="269" 
d="M151 401c-7.33301 7.33301 -14.001 22 -20.001 44c-4 16 -9 25.667 -15 29c-2.66699 1.33301 -6 -0.333984 -10 -5.00098c-5.33301 -6 -11.333 -15.333 -18 -28c-11.333 -24.667 -18 -44.667 -20 -60c-12.667 -95.333 -16.334 -188.666 -11.001 -279.999
c1.33301 -19.333 6.66602 -42 15.999 -68c5.33301 -14.667 11 -25.334 17 -32.001c5.33301 -6 10 -8.33301 14 -7c4.66699 2 9.33398 7 14.001 15c4.66699 6.66699 9.66699 16 15 28c3.33301 8.66699 9.33301 28.334 18 59.001c2 5.33301 5.83301 7.16602 11.5 5.49902
s7.83398 -5.5 6.50098 -11.5c-9.33301 -30.667 -16 -50.667 -20 -60c-5.33301 -12.667 -10.666 -23 -15.999 -31c-7.33301 -11.333 -15 -18.333 -23 -21c-12 -4.66699 -23.333 -1 -34 11c-6.66699 8.66699 -13.334 21.334 -20.001 38.001c-10 28 -15.667 52 -17 72
c-5.33301 94 -1.66602 188.667 11.001 284c2.66699 17.333 10 39 22 65c7.33301 14.667 14.333 25.667 21 33c10.667 11.333 21 14.333 31 9c11.333 -6 19.666 -19.667 24.999 -41c4.66699 -18.667 9.33398 -30 14.001 -34s5 -8.33301 1 -13s-8.33301 -5 -13 -1z" />
    <glyph glyph-name="D" unicode="D" horiz-adv-x="349" 
d="M87 23c0.666992 2 1.33203 3.66699 1.99902 5c4 4.66699 8.33301 5 13 1c4 -4 9.66699 -3.66699 17 1c8.66699 4.66699 18.334 13.334 29.001 26.001c16.667 20 30.667 41 42 63c10 20.667 19.333 50.667 28 90s13.334 78 14.001 116c0 43.333 -6 77.666 -18 102.999
c-14 28.667 -35.333 43.667 -64 45c-32.667 2 -57.667 -3 -75 -15c-0.666992 -0.666992 -1.33398 -1 -2.00098 -1c0 -12.667 1.33301 -31 4 -55c5.33301 -47.333 8 -76.333 8 -87c0 -22 -1 -52.833 -3 -92.5s-3 -76 -3 -109s2.66699 -63.167 8 -90.5zM87.998 18
c0 -4.66699 -2.33203 -7.66602 -6.99902 -8.99902c-6 -1.33301 -9.66699 1 -11 7c-5.33301 28 -8.16602 59.167 -8.49902 93.5s0.5 72 2.5 113s3 71.833 3 92.5c0 8.66699 -2.66699 37 -8 85c-4 36 -4.33301 65 -1 87c1.33301 6 4.83301 8.5 10.5 7.5
s8.16699 -4.16699 7.5 -9.5c-0.666992 -2 -1 -4 -1 -6c19.333 10 44.333 14 75 12c36 -2 62.667 -20.333 80 -55c13.333 -28 20 -65.333 20 -112c-0.666992 -38.667 -5.5 -78.334 -14.5 -119.001s-18.833 -72 -29.5 -94c-11.333 -23.333 -26 -45.666 -44 -66.999
c-12 -14.667 -23.333 -24.667 -34 -30c-14.667 -8.66699 -27.334 -8.33398 -38.001 0.999023c-0.666992 0.666992 -1.33398 1.66699 -2.00098 3z" />
    <glyph glyph-name="E" unicode="E" horiz-adv-x="309" 
d="M60 494c11.333 3.33301 26.001 5.33105 44.001 5.99805c30.667 0.666992 48 1.33398 52 2.00098c6 0.666992 9.33301 -2 10 -8s-2 -9.33301 -8 -10c-4.66699 -0.666992 -22.667 -1.33398 -54 -2.00098c-12.667 -0.666992 -23.334 -1.66699 -32.001 -3
c5.33301 -19.333 8.66602 -51.333 9.99902 -96c1.33301 -32 1.33301 -78 0 -138c6 1.33301 13 3 21 5c19.333 3.33301 32 6 38 8c6 1.33301 9.66699 -1 11 -7s-1 -9.66699 -7 -11s-18.667 -4 -38 -8c-10.667 -2 -19.334 -4 -26.001 -6c-1.33301 -72.667 -2 -121 -2 -145
c0.666992 -21.333 1.66699 -38 3 -50c0.666992 -6.66699 1.66699 -11.667 3 -15c0.666992 -1.33301 1 -2.33301 1 -3c2.66699 0 6.33398 0.333008 11.001 1c7.33301 0.666992 20 2 38 4c38 4 59.667 6 65 6c6 0 9 -3 9 -9s-3 -9 -9 -9c-4.66699 0 -26 -2 -64 -6
c-18 -2 -30.333 -3.33301 -37 -4c-5.33301 -0.666992 -9.33301 -1 -12 -1h-4h-3h-1c-2 0.666992 -3.33301 1.66699 -4 3c-3.33301 2.66699 -5.66602 7 -6.99902 13c-1.33301 4.66699 -2.66602 10.667 -3.99902 18c-1.33301 12.667 -2.33301 30 -3 52
c0 24 0.666992 71.667 2 143c-2 1.33301 -3.33301 3 -4 5c-1.33301 4.66699 0.333984 8.33398 5.00098 11.001c1.33301 62.667 1.33301 110.334 0 143.001c-0.666992 42.667 -3.66699 72.667 -9 90c-4.66699 -0.666992 -8 1 -10 5c-2.66699 6 -1.33398 10 3.99902 12l6 2
l1 1c1.33301 0.666992 2.66602 1 3.99902 1z" />
    <glyph glyph-name="F" unicode="F" horiz-adv-x="301" 
d="M73 489c12.667 -0.666992 29.6689 1.33691 51.002 6.00391c33.333 6.66699 56 10 68 10c6 0 9 -3 9 -9s-3 -9 -9 -9c-10.667 0 -32.334 -3.33301 -65.001 -10c-22.667 -4.66699 -40.334 -6.66699 -53.001 -6c-3.33301 -17.333 -3.33301 -41 0 -71
c0.666992 -6 1.83398 -14.5 3.50098 -25.5s2.5 -17.5 2.5 -19.5c2 -12.667 3 -23.334 3 -32.001l18 6c12 3.33301 21 6 27 8c5.33301 2.66699 9.16602 1.16699 11.499 -4.5s0.5 -9.5 -5.5 -11.5c-6 -2.66699 -15.333 -6 -28 -10c-9.33301 -2.66699 -16.666 -5 -21.999 -7
c0 -4.66699 -1.33301 -51 -4 -139c-2 -60 0.333008 -108 7 -144c1.33301 -6 -1 -9.66699 -7 -11s-9.66699 1 -11 7c-6.66699 37.333 -9 87 -7 149c2.66699 91.333 4 140.333 4 147c0 10 -1.33301 23.333 -4 40c0 1.33301 -0.833008 7.66602 -2.5 18.999
s-2.83398 20 -3.50098 26c-3.33301 31.333 -3.33301 56.666 0 75.999c-4 2 -5.66699 5.33301 -5 10c1.33301 6 5 8.33301 11 7c2.66699 1.33301 5 1.66602 7 0.999023s3.33301 -1.66699 4 -3z" />
    <glyph glyph-name="G" unicode="G" horiz-adv-x="283" 
d="M137 305c0.666992 4 3.00391 31.3311 7.00391 81.998c1.33301 16 0.5 34 -2.5 54s-7.5 35.333 -13.5 46c-2.66699 4.66699 -5.33398 7.66699 -8.00098 9c-1.33301 0.666992 -3.33301 0.333984 -6 -0.999023c-9.33301 -5.33301 -20.333 -23.666 -33 -54.999
c-19.333 -56.667 -27.833 -116.167 -25.5 -178.5s13.166 -121.833 32.499 -178.5c0 -1.33301 1.33301 -6.66602 4 -15.999c2.66699 -8 5 -14.333 7 -19c5.33301 -14 10.666 -21.667 15.999 -23l2 1c2.66699 2.66699 5.66699 7 9 13c6 12 11.667 29.667 17 53
c9.33301 36 15.666 69 18.999 99c0 2 0.666992 4.66699 2 8c0.666992 2.66699 1 4.33398 1 5.00098h-4c-4 -0.666992 -9.33301 -1.66699 -16 -3c-20 -4 -30.667 -6 -32 -6c-6 -0.666992 -9.33301 2 -10 8s2 9.33301 8 10c0.666992 0 10.667 2 30 6
c7.33301 1.33301 13.333 2.33301 18 3c3.33301 0.666992 6 1 8 1c3.33301 0 6 -0.666992 8 -2c6.66699 -2.66699 9.33398 -9 8.00098 -19c-0.666992 -2 -1.33398 -4.66699 -2.00098 -8c-0.666992 -2.66699 -1 -4.33398 -1 -5.00098
c-3.33301 -30.667 -9.66602 -64.667 -18.999 -102c-6 -24 -12.333 -42.333 -19 -55c-4 -8.66699 -8 -15 -12 -19c-6.66699 -6 -13.667 -8 -21 -6c-10.667 3.33301 -19.667 14.666 -27 33.999c-2 5.33301 -4.33301 12.333 -7 21
c-2.66699 9.33301 -4.33398 14.333 -5.00098 15c-19.333 58.667 -30.166 120 -32.499 184s6.83398 125.667 27.501 185c13.333 35.333 26.666 57 39.999 65c8 4.66699 15.667 5 23 1c6 -2.66699 11 -8 15 -16c7.33301 -12.667 12.666 -30 15.999 -52s4.33301 -41.667 3 -59
c-4 -49.333 -6.5 -76.833 -7.5 -82.5s-4.33301 -8 -10 -7s-8.16699 4.16699 -7.5 9.5z" />
    <glyph glyph-name="H" unicode="H" horiz-adv-x="294" 
d="M157 470c-4 -18 -4.33203 -42 -0.999023 -72c0.666992 -1.33301 2.16699 -12 4.5 -32s3.83301 -35 4.5 -45c1.33301 -24 2.33301 -51 3 -81c6 0.666992 11.333 1.33398 16 2.00098c6 0.666992 9.33301 -2 10 -8s-2 -9.33301 -8 -10
c-5.33301 -0.666992 -11 -1.33398 -17 -2.00098c3.33301 -134 6 -214.333 8 -241c0.666992 -6 -2 -9.33301 -8 -10s-9.33301 2 -10 8c-2 28.667 -4.66699 108.334 -8 239.001l-19 -5c-25.333 -7.33301 -41.333 -11.666 -48 -12.999c8 -84 12 -148 12 -192c0 -6 -3 -9 -9 -9
s-9 3 -9 9c0 38 -5.66699 118 -17 240c-9.33301 100.667 -11 181.667 -5 243c0.666992 6 4 8.66699 10 8s8.66699 -4 8 -10c-6 -60 -4.33301 -140 5 -240l3 -31l46 12c8.66699 2.66699 16 4.66699 22 6c-0.666992 31.333 -1.66699 59.666 -3 84.999
c-0.666992 6.66699 -1.33398 14.167 -2.00098 22.5s-1.66699 17.666 -3 27.999s-2.33301 18.5 -3 24.5c-4 32 -4 58 0 78c1.33301 6 5 8.33301 11 7s8.33301 -5 7 -11z" />
    <glyph glyph-name="I" unicode="I" horiz-adv-x="207" 
d="M88 493c-3.33301 -9.33301 -4.33398 -21.665 -3.00098 -36.998l2 -20c0.666992 -8.66699 1 -15.667 1 -21c0 -43.333 3 -108.333 9 -195c6.66699 -96 10 -161.333 10 -196c0 -6 -3 -9 -9 -9s-9 3 -9 9c0 43.333 -3 108.333 -9 195c-6.66699 96 -10 161.333 -10 196
c0 5.33301 -0.333008 11.666 -1 18.999l-2 21c-1.33301 17.333 -0.333008 32 3 44c2 5.33301 5.83301 7.16602 11.5 5.49902s7.83398 -5.5 6.50098 -11.5z" />
    <glyph glyph-name="J" unicode="J" horiz-adv-x="225" 
d="M113 497c-2.66699 -10.667 -4.16602 -21.498 -4.49902 -32.498s0.333984 -24.667 2.00098 -41s2.5 -28.166 2.5 -35.499c0.666992 -20 2.5 -53.167 5.5 -99.5s4.83301 -81.333 5.5 -105s0.333984 -56.834 -0.999023 -99.501c-1.33301 -15.333 -5.66602 -30 -12.999 -44
s-16 -24.333 -26 -31c-12.667 -8 -24.334 -8.83301 -35.001 -2.5s-18.334 19.166 -23.001 38.499c-4 17.333 -4 47 0 89c0.666992 6 4 8.66699 10 8s8.66699 -4 8 -10c-3.33301 -40 -3.33301 -67.667 0 -83c3.33301 -14.667 8 -23.667 14 -27c4.66699 -2.66699 10 -2 16 2
c7.33301 4.66699 14 12.834 20 24.501s9.66699 24.167 11 37.5c1.33301 41.333 1.66602 73.666 0.999023 96.999s-2.5 58 -5.5 104s-4.83301 79.667 -5.5 101c0 5.33301 -0.833008 16.5 -2.5 33.5s-2.33398 31.667 -2.00098 44s1.83301 24.166 4.5 35.499
c1.33301 6 5 8.33301 11 7s8.33301 -5 7 -11z" />
    <glyph glyph-name="K" unicode="K" horiz-adv-x="293" 
d="M186 485c-2.66699 -7.33301 -7.00293 -22.3271 -13.0029 -44.9941c-4.66699 -20 -9.66699 -36 -15 -48c-2.66699 -7.33301 -15.667 -30.333 -39 -69c-18 -31.333 -27.667 -52.333 -29 -63c-1.33301 -9.33301 2 -25.333 10 -48c7.33301 -20 17.333 -44.333 30 -73
c8.66699 -18.667 20.5 -42.834 35.5 -72.501s23.833 -47.834 26.5 -54.501c2.66699 -5.33301 1.33398 -9.33301 -3.99902 -12s-9.33301 -1.33398 -12 3.99902l-27 54c-14.667 30 -26.334 54.667 -35.001 74c-14 29.333 -24.333 54 -31 74c-2 6.66699 -4 12.667 -6 18
c0.666992 -13.333 0.833984 -50 0.500977 -110s-0.5 -96.333 -0.5 -109c0 -6 -3 -9 -9 -9s-9 3 -9 9c0 196 -1 317 -3 363c0 3.33301 -1 16.166 -3 38.499s-2.66699 40.666 -2 54.999s2.33398 27.833 5.00098 40.5c1.33301 6 5 8.33301 11 7s8.33301 -5 7 -11
c-3.33301 -12 -5.16602 -24.5 -5.49902 -37.5s0.5 -30.167 2.5 -51.5s3 -35 3 -41c1.33301 -27.333 2.33301 -57 3 -89c4 12 13 29.667 27 53c22 38 34.667 60.667 38 68c4 10 8.66699 24.667 14 44c6 23.333 10.667 39 14 47c1.33301 5.33301 4.83301 7.16602 10.5 5.49902
s7.5 -5.5 5.5 -11.5z" />
    <glyph glyph-name="L" unicode="L" horiz-adv-x="284" 
d="M76 508c-2.66699 -10.667 -4.16797 -22 -4.50098 -34s-0.166016 -26.667 0.500977 -44s1 -29.666 1 -36.999c0 -14.667 0.166992 -42.5 0.5 -83.5s0.333008 -75.833 0 -104.5s-1.16602 -56.667 -2.49902 -84c0 -0.666992 -0.333008 -4.5 -1 -11.5
s-1.16699 -15.167 -1.5 -24.5s-0.833008 -18 -1.5 -26c-0.666992 -15.333 -1 -27.666 -1 -36.999v-12c0 -1.33301 0.333008 -2.33301 1 -3l2 -1c2.66699 -0.666992 6.33398 -1.33398 11.001 -2.00098c8.66699 -1.33301 20 -2 34 -2c27.333 0 47 1 59 3
c6 0.666992 9.5 -1.83301 10.5 -7.5s-1.16699 -9.16699 -6.5 -10.5c-13.333 -2 -34.333 -3 -63 -3c-14.667 0 -26.667 0.666992 -36 2c-6 1.33301 -11 2.33301 -15 3c-5.33301 2 -9 4.33301 -11 7c-1.33301 2 -2.33301 4 -3 6c0 2 -0.333008 4 -1 6v14
c0 9.33301 0.333008 22 1 38c0.666992 8 1.16699 16.667 1.5 26s0.833008 17.5 1.5 24.5s1 11.167 1 12.5c1.33301 26.667 2.16602 54.334 2.49902 83.001s0.333008 63.167 0 103.5s-0.5 68.166 -0.5 83.499c0 5.33301 -0.333008 17.166 -1 35.499
s-0.833984 34 -0.500977 47s1.83301 25.167 4.5 36.5c1.33301 6 5 8.33301 11 7s8.33301 -5 7 -11z" />
    <glyph glyph-name="M" unicode="M" horiz-adv-x="293" 
d="M49 -5c-2.66699 5.33301 -5.00391 14.332 -7.00391 26.999c-1.33301 10.667 -2.33301 25 -3 43c-1.33301 32 -2 70.667 -2 116c0.666992 62.667 2.33398 129 5.00098 199c2 52 3 80.333 3 85c0 0.666992 -0.166992 1.66699 -0.5 3s-0.833008 3.16602 -1.5 5.49902
s-1.33398 4.5 -2.00098 6.5c-0.666992 4 -1 7.66699 -1 11c1.33301 5.33301 4.33301 9 9 11s9 1.33301 13 -2c1.33301 -1.33301 2.66602 -3.33301 3.99902 -6c0 -0.666992 0.333008 -2.33398 1 -5.00098c0.666992 -0.666992 1 -1.33398 1 -2.00098
c9.33301 -16.667 18 -41 26 -73c0.666992 -3.33301 2.83398 -12.333 6.50098 -27s6.5 -25.667 8.5 -33c7.33301 36.667 18.333 78 33 124c0.666992 0 1 3.66699 1 11c0.666992 10 4.33398 16 11.001 18c6 2.66699 11 0.666992 15 -6
c0.666992 -0.666992 1.33398 -1.66699 2.00098 -3l1 -3c9.33301 -17.333 13 -44.666 11 -81.999c0 -5.33301 -1 -20 -3 -44c-0.666992 -16 -1 -28.333 -1 -37c0.666992 -20.667 3.16699 -68 7.5 -142s6.5 -131 6.5 -171c0 -6 -3 -9 -9 -9s-9 3 -9 9
c0 40 -2.16699 96.833 -6.5 170.5s-6.83301 121.167 -7.5 142.5c0 8.66699 0.333008 21.334 1 38.001c2 24 3 38.333 3 43c1.33301 27.333 -0.333984 48.333 -5.00098 63v-4c-15.333 -46 -26.666 -87.667 -33.999 -125c0 -0.666992 -0.333008 -2.66699 -1 -6
c0 -3.33301 -0.333008 -6 -1 -8c-0.666992 -4 -1.66699 -7 -3 -9c-3.33301 -5.33301 -8 -7.33301 -14 -6c-5.33301 1.33301 -8.66602 5 -9.99902 11c-0.666992 0.666992 -1 2 -1 4c0 1.33301 -0.333008 2 -1 2c-1.33301 4 -7.66602 29 -18.999 75
c-4 17.333 -8.33301 32 -13 44c0 -7.33301 -0.166992 -15.166 -0.5 -23.499s-0.833008 -17.5 -1.5 -27.5s-1 -17.667 -1 -23c-2.66699 -67.333 -4.33398 -133.666 -5.00098 -198.999c0 -45.333 0.666992 -83.666 2 -114.999c0.666992 -16.667 1.66699 -30.334 3 -41.001
c1.33301 -11.333 3 -18.666 5 -21.999c2.66699 -5.33301 1.33398 -9.33301 -3.99902 -12s-9.33301 -1.33398 -12 3.99902z" />
    <glyph glyph-name="N" unicode="N" horiz-adv-x="273" 
d="M50 1c1.33301 14.667 1.00195 36.001 -0.998047 64.001c-1.33301 30.667 -1.66602 53.334 -0.999023 68.001c8.66699 129.333 13 209.666 13 240.999v109v1l-1 4c-0.666992 2.66699 -0.666992 5 0 7c0 2 1 4 3 6c2 1.33301 4.33301 2 7 2s4.66699 -0.666992 6 -2l2 -2v-1
c0 -0.666992 0.333008 -1 1 -1v-2c0 -0.666992 0.333008 -1.66699 1 -3l2 -11l8 -35c8 -34 12.667 -58.667 14 -74c12.667 -121.333 22.667 -200.666 30 -237.999c0.666992 -2.66699 1.66699 -11.334 3 -26.001l4 -37l1 7l8 105c3.33301 42 5 84.333 5 127
c0 20.667 -0.666992 51.834 -2 93.501s-2 72.834 -2 93.501c0 6 3 9 9 9s9 -3 9 -9c0 -20.667 0.666992 -51.834 2 -93.501s2 -72.834 2 -93.501c0 -43.333 -1.66699 -86.333 -5 -129c-4 -50 -7 -85 -9 -105c-1.33301 -21.333 -2.66602 -38 -3.99902 -50
c-1.33301 -7.33301 -2.33301 -12.666 -3 -15.999c0 -2.66699 -0.333008 -4.66699 -1 -6c0 -0.666992 -0.166992 -1.33398 -0.5 -2.00098s-0.833008 -1.33398 -1.5 -2.00098c-1.33301 -2 -3 -3.33301 -5 -4c-4 -0.666992 -7 0.666016 -9 3.99902
c-0.666992 0.666992 -1.33398 1.66699 -2.00098 3s-1.33398 3 -2.00098 5c-0.666992 2.66699 -1.33398 7 -2.00098 13c-1.33301 10 -3 23.667 -5 41l-5 44c-1.33301 14 -2.33301 22 -3 24c-6.66699 38 -16.667 118 -30 240c-0.666992 8.66699 -3 22.667 -7 42v-38
c0 -31.333 -4.33301 -112.333 -13 -243c-0.666992 -13.333 -0.333984 -35 0.999023 -65c2 -29.333 2.33301 -51.666 1 -66.999c-0.666992 -6 -4 -8.66699 -10 -8s-8.66699 4 -8 10z" />
    <glyph glyph-name="O" unicode="O" horiz-adv-x="275" 
d="M85 479c-5.33301 -12.667 -10.3291 -31.667 -14.9961 -57c-4.66699 -30 -8.33398 -67.667 -11.001 -113c-4.66699 -81.333 -5.33398 -148 -2.00098 -200c1.33301 -24.667 6.33301 -48.334 15 -71.001c5.33301 -15.333 11 -26 17 -32
c5.33301 -5.33301 11.666 -6 18.999 -2c3.33301 2 6.66602 7.66699 9.99902 17c1.33301 3.33301 2.83301 8 4.5 14s3.16699 10 4.5 12c45.333 116 42.333 235.333 -9 358c-2.66699 6 -5.66699 13.667 -9 23c-3.33301 10.667 -6 18.334 -8 23.001
c-4.66699 12 -10 21.333 -16 28zM92.0039 497c10 -8.66699 18.665 -21.667 25.998 -39c2 -5.33301 4.66699 -13.333 8 -24c3.33301 -10 6 -17.667 8 -23c53.333 -126.667 56.333 -250 9 -370c-0.666992 -2 -1.66699 -5.66699 -3 -11c-2 -6.66699 -3.66699 -11.667 -5 -15
c-4.66699 -14 -11 -23 -19 -27c-14 -8 -27 -6.33301 -39 5c-8.66699 8 -16 21 -22 39c-8.66699 24.667 -14 49.667 -16 75c-3.33301 53.333 -2.66602 121 2.00098 203c2.66699 46 6.33398 84.333 11.001 115c6 32.667 13 55.667 21 69c0 2 0.666992 3.66699 2 5
c2 3.33301 4.66699 4.66602 8 3.99902c2.66699 0 5 -0.666992 7 -2c1.33301 -1.33301 2 -2.66602 2 -3.99902z" />
    <glyph glyph-name="P" unicode="P" horiz-adv-x="289" 
d="M68 252c-1.33301 -151.333 -2.00098 -231.663 -2.00098 -240.996c0 -6 -3 -9 -9 -9s-9 3 -9 9c0 36.667 0.5 92 1.5 166s1.5 129.333 1.5 166c0 8 -0.666992 24.833 -2 50.5s-1.66602 48.167 -0.999023 67.5s3.33398 36.666 8.00098 51.999
c2 5.33301 5.83301 7.16602 11.5 5.49902s7.66699 -5.33398 6 -11.001s-3.16699 -11.834 -4.5 -18.501c2.66699 0 14 0.666992 34 2c16.667 0.666992 29.667 -0.666016 39 -3.99902c14 -4.66699 26.333 -19 37 -43c17.333 -38.667 15 -77.334 -7 -116.001s-53 -65 -93 -79
c-4.66699 -2 -8.33398 -1 -11.001 3zM68.999 262.003c0.666992 1.33301 2.00098 2.33398 4.00098 3.00098c36 13.333 63.5 37 82.5 71s21.5 67.333 7.5 100c-8.66699 19.333 -17.667 31 -27 35c-6.66699 2 -17.334 2.66699 -32.001 2c-20.667 -1.33301 -33 -2 -37 -2
c-2 -6.66699 -2.16699 -27.834 -0.5 -63.501s2.5 -57.167 2.5 -64.5v-81z" />
    <glyph glyph-name="Q" unicode="Q" horiz-adv-x="302" 
d="M127 121c-13.333 13.333 -22 26.3301 -26 38.9971c-1.33301 6 0.833984 9.83301 6.50098 11.5s9.5 -0.166016 11.5 -5.49902c2 -6.66699 5.33301 -13.334 10 -20.001c1.33301 12 2.33301 24.667 3 38c6 90.667 5.33301 155 -2 193
c-7.33301 42.667 -13.333 70.334 -18 83.001c-5.33301 15.333 -11.333 25.666 -18 30.999c-0.666992 0.666992 -1.66699 1.33398 -3 2.00098c-10.667 -12.667 -19.334 -36.667 -26.001 -72c-6.66699 -30.667 -11.334 -69 -14.001 -115c-4 -74 -3.66699 -144.667 1 -212
c1.33301 -17.333 7 -38.666 17 -63.999c6 -13.333 11.667 -22.333 17 -27c1.33301 -1.33301 2.66602 -2 3.99902 -2c2 0 4 1.33301 6 4c8.66699 10 16.334 32 23.001 66c2.66699 14.667 5.33398 31.334 8.00098 50.001zM143 105.997
c-2 -14 -3.99902 -26.6699 -5.99902 -38.0029c-7.33301 -38 -16.333 -63 -27 -75c-6 -6 -12 -9.33301 -18 -10s-12 1.33301 -18 6c-7.33301 6.66699 -14.333 18 -21 34c-11.333 26.667 -17.666 49.667 -18.999 69c-4.66699 68 -5 139.667 -1 215
c2.66699 46 7.33398 85.333 14.001 118c5.33301 26 11.666 46.667 18.999 62c-2.66699 0 -4.66699 1.33301 -6 4c-4 4.66699 -3.33301 8.66699 2 12c15.333 12 29.666 12.667 42.999 2c9.33301 -7.33301 17.333 -20.333 24 -39c4.66699 -13.333 11 -41.666 19 -84.999
c7.33301 -40 8 -106 2 -198c-1.33301 -19.333 -3 -37.666 -5 -54.999l9 -7c25.333 -23.333 40.666 -39.333 45.999 -48c3.33301 -4.66699 2.66602 -8.66699 -2.00098 -12s-8.66699 -2.66602 -12 2.00098c-5.33301 8 -19.666 22.333 -42.999 43z" />
    <glyph glyph-name="R" unicode="R" horiz-adv-x="307" 
d="M67 481c-4 -66.667 -6 -146.334 -6 -239.001c2 3.33301 4.66699 7 8 11l7 7c3.33301 2.66699 5.33301 4.66699 6 6c41.333 48 67.333 81 78 99c26 42 34.667 78.667 26 110c-4 14.667 -18.667 21.334 -44 20.001c-25.333 -2 -45.666 -8.33301 -60.999 -19
c-4.66699 -4 -8.66699 -3.33301 -12 2c-0.666992 0.666992 -1.33398 1.66699 -2.00098 3zM71 490c18 13.333 41.333 21.001 70 23.001c35.333 1.33301 56.333 -10 63 -34c10 -36 0.333008 -77.333 -29 -124c-11.333 -18 -37.666 -51.667 -78.999 -101l-7 -7l-7 -7
c-4 -4 -6 -7.33301 -6 -10c0 -7.33301 4.33301 -20.333 13 -39c8 -16.667 19.333 -37 34 -61c24 -38.667 46.667 -72.334 68 -101.001c4 -4.66699 3.5 -8.83398 -1.5 -12.501s-9.16699 -2.83398 -12.5 2.49902c-21.333 28.667 -44.333 62.667 -69 102
c-14.667 24.667 -26.334 45.334 -35.001 62.001c-5.33301 11.333 -9.33301 21 -12 29c0 -19.333 0.166992 -51.666 0.5 -96.999s0.5 -80 0.5 -104c0 -6 -3 -9 -9 -9s-9 3 -9 9c0 23.333 -0.166992 63.333 -0.5 120s-0.5 100.667 -0.5 132s0.666992 70.333 2 117
s3.33301 89.334 6 128.001c0.666992 6 4 8.66699 10 8s8.66699 -4 8 -10c-0.666992 -6.66699 -1 -13.334 -1 -20.001c0.666992 2 1.66699 3.33301 3 4z" />
    <glyph glyph-name="S" unicode="S" horiz-adv-x="263" 
d="M133 429c0 17.333 -3.00098 31.668 -9.00098 43.001c-5.33301 10 -11.333 15.333 -18 16c-6 0.666992 -11.667 -3 -17 -11c-8 -12.667 -13 -31.667 -15 -57c-1.33301 -13.333 -0.666016 -26.333 2.00098 -39s5.66699 -22.667 9 -30s9 -18.166 17 -32.499
s14 -26.166 18 -35.499c28.667 -61.333 43 -120 43 -176c0 -22 -4.66699 -41.5 -14 -58.5s-21 -28.167 -35 -33.5c-16 -6 -30.667 -3.33301 -44 8s-22.666 30.333 -27.999 57c-1.33301 6 1 9.66699 7 11s9.66699 -1 11 -7c4.66699 -23.333 12 -39.333 22 -48
c7.33301 -6.66699 15.666 -8.33398 24.999 -5.00098c10 4 18.833 13 26.5 27s11.5 30.333 11.5 49c0 53.333 -13.667 109.333 -41 168c-4 8 -10 19.333 -18 34s-13.833 26.167 -17.5 34.5s-7 19.666 -10 33.999s-3.83301 29.166 -2.5 44.499
c2.66699 28 8.66699 49.333 18 64c9.33301 15.333 21 22 35 20c12 -2 22 -10.333 30 -25s12 -32 12 -52c0 -6 -3 -9 -9 -9s-9 3 -9 9z" />
    <glyph glyph-name="T" unicode="T" horiz-adv-x="327" 
d="M28 498c20.667 8 52.999 11.002 96.999 9.00195c46 -2.66699 78.333 -9 97 -19c5.33301 -3.33301 6.5 -7.5 3.5 -12.5s-6.83301 -6.16699 -11.5 -3.5c-16.667 9.33301 -46.334 15 -89.001 17h-30c-0.666992 -4.66699 -1 -11.334 -1 -20.001c0 -12.667 0.333008 -30 1 -52
c1.33301 -40 3.66602 -89.667 6.99902 -149c8.66699 -134.667 15.667 -215 21 -241c1.33301 -6 -1 -9.66699 -7 -11s-9.66699 1 -11 7c-5.33301 27.333 -12.333 108.666 -21 243.999c-3.33301 60 -5.66602 110 -6.99902 150c-0.666992 22 -1 39.667 -1 53
c0 7.33301 0.333008 13.333 1 18c-19.333 -0.666992 -33.666 -2.66699 -42.999 -6c-5.33301 -2.66699 -9.16602 -1.16699 -11.499 4.5s-0.5 9.5 5.5 11.5z" />
    <glyph glyph-name="U" unicode="U" horiz-adv-x="272" 
d="M68 499c-5.33301 -39.333 -5.33301 -94.668 0 -166.001c2 -25.333 2.66699 -63.333 2 -114c0 -49.333 1 -86.333 3 -111c3.33301 -36.667 6 -60 8 -70c3.33301 -16.667 7.33301 -28.667 12 -36c2 -3.33301 4 -5.33301 6 -6s4 -0.666992 6 0c16 8 28.333 34 37 78
c7.33301 39.333 11.333 90.333 12 153c0.666992 100.667 -4.33301 189 -15 265c-0.666992 6 2 9.33301 8 10s9.33301 -2 10 -8c10.667 -76.667 15.667 -165.667 15 -267c-0.666992 -64 -4.66699 -116 -12 -156c-10 -50.667 -25.667 -81 -47 -91
c-7.33301 -3.33301 -14.333 -3.66602 -21 -0.999023c-5.33301 2 -10 6.33301 -14 13c-6 9.33301 -11 23.333 -15 42c-2 11.333 -4.66699 35.333 -8 72c-2 25.333 -3 63.333 -3 114c0.666992 49.333 0 86.333 -2 111c-6 72 -6 128.667 0 170c0.666992 6 4 8.66699 10 8
s8.66699 -4 8 -10z" />
    <glyph glyph-name="V" unicode="V" horiz-adv-x="280" 
d="M52 506c3.33301 -18 5.50488 -44.6611 6.50488 -79.9941s1.5 -55 1.5 -59c2 -27.333 6.66699 -67 14 -119c8 -57.333 13.333 -97.333 16 -120c1.33301 -12.667 3.66602 -31.334 6.99902 -56.001c3.33301 27.333 6 44.666 8 51.999c38 139.333 57 260.666 57 363.999
c0 6 3 9 9 9s9 -3 9 -9c0 -106 -19 -228.667 -57 -368c-2 -6.66699 -5 -26.667 -9 -60c-2 -16 -3.33301 -26.333 -4 -31s-1.33398 -8.33398 -2.00098 -11.001c0 -1.33301 -0.166992 -2.5 -0.5 -3.5s-0.833008 -1.83301 -1.5 -2.5
c-1.33301 -2.66699 -3.33301 -4.33398 -6 -5.00098c-2 0 -3.83301 0.333008 -5.5 1s-2.83398 1.33398 -3.50098 2.00098l-1 1c0 0.666992 -0.333008 1.5 -1 2.5s-1 2.5 -1 4.5c-0.666992 2 -1.33398 5.66699 -2.00098 11c-2 8 -4 19 -6 33l-8 64
c-2 20 -7.33301 59.667 -16 119c-7.33301 50.667 -12 90.667 -14 120c-0.666992 7.33301 -1.33398 27.666 -2.00098 60.999s-2.66699 58.666 -6 75.999c-1.33301 6 1 9.66699 7 11s9.66699 -1 11 -7z" />
    <glyph glyph-name="W" unicode="W" horiz-adv-x="326" 
d="M51 485c-8.66699 -24 -8.66406 -75.001 0.00292969 -153.001c2 -20 5.66699 -49.333 11 -88c5.33301 -38 8.33301 -63.667 9 -77c0.666992 -8 1.33398 -28 2.00098 -60c0.666992 -24.667 2 -44.334 4 -59.001c0 -0.666992 0.666992 -3.33398 2 -8.00098l1 -7l13 39
c14.667 47.333 23 73.333 25 78c0 0.666992 0.333008 2 1 4v4c0 2 0.333008 3.33301 1 4c0 4 0.666992 7 2 9c2 2.66699 4.33301 4.66699 7 6c2.66699 0.666992 5.33398 0.333984 8.00098 -0.999023l5 -4c0.666992 -0.666992 1 -1.33398 1 -2.00098
c0.666992 -1.33301 1 -2.66602 1 -3.99902c1.33301 -2.66699 2.66602 -7 3.99902 -13l9 -39c9.33301 -38.667 16.666 -63.667 21.999 -75c0.666992 -0.666992 1 -1.66699 1 -3c1.33301 8 2.33301 19.333 3 34c0.666992 6 1.33398 18.667 2.00098 38
c0.666992 13.333 1.33398 21.666 2.00098 24.999c23.333 172.667 28 294.334 14 365.001c-1.33301 6 1 9.66699 7 11s9.66699 -1 11 -7c14.667 -72.667 10 -196.334 -14 -371.001c-0.666992 -2.66699 -1.33398 -10.667 -2.00098 -24
c-0.666992 -19.333 -1.33398 -32.333 -2.00098 -39c-0.666992 -15.333 -1.66699 -27.333 -3 -36c-0.666992 -5.33301 -1.66699 -9.66602 -3 -12.999c0 -2 -0.666992 -4 -2 -6c-1.33301 -2.66699 -3.33301 -4.33398 -6 -5.00098c-4.66699 -2 -9.33398 -1.33301 -14.001 2
c-2 2 -3.66699 4.66699 -5 8c-0.666992 2 -1.66699 4.66699 -3 8c-0.666992 2.66699 -1.33398 4.33398 -2.00098 5.00098c-6 12 -14 38.333 -24 79l-6 28c-2.66699 -6 -10.334 -30 -23.001 -72l-15 -45c-2 -6.66699 -3.66699 -12 -5 -16
c-1.33301 -2 -2.33301 -3.66699 -3 -5c-0.666992 -2 -1.66699 -3.66699 -3 -5c-2.66699 -2 -5.66699 -2.66699 -9 -2c-1.33301 0.666992 -2.66602 1.66699 -3.99902 3c-0.666992 0.666992 -1 1.33398 -1 2.00098s-0.166992 1.16699 -0.5 1.5s-0.5 0.833008 -0.5 1.5
c-0.666992 1.33301 -1 3 -1 5l-4 15l-3 15c-1.33301 5.33301 -2 8.66602 -2 9.99902c-2 14.667 -3.33301 34.667 -4 60c-0.666992 32 -1.33398 51.667 -2.00098 59c-0.666992 12.667 -3.66699 38.334 -9 77.001c-5.33301 38 -9 67.333 -11 88c-8.66699 81.333 -8 135 2 161
c2 6 5.83301 7.83301 11.5 5.5s7.16699 -6.16602 4.5 -11.499z" />
    <glyph glyph-name="X" unicode="X" horiz-adv-x="271" 
d="M23.5 -9.5c-1.66699 5.66699 -1.16504 16.4961 1.50195 32.4961c2.66699 14 6.66699 32 12 54c8 32.667 20.333 78.334 37 137.001c-7.33301 32 -13.333 62 -18 90c-2 14 -3.66699 44.333 -5 91c-0.666992 39.333 -3.66699 67.333 -9 84
c-1.33301 6 0.833984 9.83301 6.50098 11.5s9.5 -0.166016 11.5 -5.49902c5.33301 -18.667 8.33301 -48.667 9 -90c1.33301 -45.333 3 -75 5 -89c2.66699 -18 6.33398 -36.667 11.001 -56c42 144.667 64.667 227.334 68 248.001c1.33301 5.33301 4.83301 7.5 10.5 6.5
s8.16699 -4.5 7.5 -10.5c-3.33301 -19.333 -28.333 -109.333 -75 -270l-3 -11c1.33301 -6.66699 19 -71.667 53 -195c1.33301 -5.33301 -0.833984 -8.83301 -6.50098 -10.5s-9.5 0.5 -11.5 6.5l-20 72c-11.333 40 -19.666 71 -24.999 93
c-12.667 -44 -22.334 -79.333 -29.001 -106c-5.33301 -22 -9 -39.667 -11 -53c-2.66699 -13.333 -3.33398 -21.666 -2.00098 -24.999c1.33301 -5.33301 -0.833984 -8.83301 -6.50098 -10.5s-9.33398 0.333008 -11.001 6z" />
    <glyph glyph-name="Y" unicode="Y" horiz-adv-x="280" 
d="M179 507l-15.002 -48.0039c-5.33301 -16 -10 -33.667 -14 -53l-10 -48c-2.66699 -13.333 -5.66699 -31.5 -9 -54.5s-5.83301 -39.5 -7.5 -49.5s-4.16699 -28.333 -7.5 -55s-5.33301 -43.667 -6 -51c-2 -13.333 -6 -37 -12 -71c-6 -29.333 -9.66699 -52.666 -11 -69.999
c-0.666992 -6 -4 -8.66699 -10 -8s-8.66699 4 -8 10c1.33301 16.667 5 40.334 11 71.001c6.66699 34 10.667 57.333 12 70c12 90.667 19.333 144.334 22 161.001c-0.666992 -0.666992 -1.66699 -1.33398 -3 -2.00098c-4.66699 -4 -8.66699 -3.33301 -12 2
c-14 18.667 -24.833 38.5 -32.5 59.5s-14.5 46 -20.5 75s-11 49.5 -15 61.5c-1.33301 6 0.833984 9.83301 6.50098 11.5s9.5 -0.166016 11.5 -5.49902c4 -15.333 9 -37 15 -65s12.333 -51.5 19 -70.5s16.667 -37.833 30 -56.5
c0.666992 -0.666992 1.33398 -1.66699 2.00098 -3c12 76 28 141 48 195c2 6 5.83301 7.83301 11.5 5.5s7.16699 -6.16602 4.5 -11.499z" />
    <glyph glyph-name="Z" unicode="Z" horiz-adv-x="304" 
d="M52 506c12 1.33301 37.335 1.33203 76.002 -0.000976562c18 -0.666992 33 -1.66699 45 -3c6.66699 -0.666992 12.334 -1.66699 17.001 -3c2.66699 -0.666992 4.66699 -1.33398 6 -2.00098c2.66699 -1.33301 4.66699 -3 6 -5c1.33301 -1.33301 2 -3 2 -5v-3
c0 -1.33301 -0.333008 -3.33301 -1 -6c-0.666992 -3.33301 -2 -8.66602 -4 -15.999c-4 -12 -9.66699 -30 -17 -54l-54 -159c-24.667 -72 -42.334 -125.333 -53.001 -160c-7.33301 -23.333 -12.666 -41.666 -15.999 -54.999c-2 -6.66699 -3.33301 -12 -4 -16v-2
c0 -0.666992 0.333008 -1 1 -1c2.66699 -0.666992 6.66699 -1.33398 12 -2.00098c9.33301 -0.666992 21.666 0 36.999 2c12 1.33301 34 5 66 11c6 0.666992 9.5 -1.83301 10.5 -7.5s-1.16699 -9.16699 -6.5 -10.5c-32.667 -6 -55.334 -9.66699 -68.001 -11
c-16.667 -2 -30 -2.66699 -40 -2c-6.66699 0.666992 -12 1.66699 -16 3c-6 2 -10.333 5.33301 -13 10c-0.666992 2 -1 4.33301 -1 7v6c1.33301 4.66699 2.66602 10.667 3.99902 18l17 56c10.667 34 28.334 87.333 53.001 160l54 159c7.33301 23.333 12.666 41 15.999 53
c2 6.66699 3.33301 11.667 4 15c-3.33301 0.666992 -8 1.33398 -14 2.00098c-12 1.33301 -26.667 2.33301 -44 3c-36.667 1.33301 -61 1.33301 -73 0c-6 -0.666992 -9.33301 2 -10 8s2 9.33301 8 10z" />
    <glyph glyph-name="bracketleft" unicode="[" horiz-adv-x="307" 
d="M171 484c-6.66699 0 -28.334 -0.665039 -65.001 -1.99805c-16 -0.666992 -29 -1.33398 -39 -2.00098h-13c-0.666992 -2.66699 -1.33398 -5.66699 -2.00098 -9c-0.666992 -8.66699 -1 -20.334 -1 -35.001c0 -26 1.66699 -60 5 -102c6 -87.333 11.667 -143.666 17 -168.999
c0.666992 -5.33301 2.66699 -32.333 6 -81c1.33301 -22 2.33301 -37.667 3 -47c0.666992 -6 1 -10.667 1 -14c-0.666992 1.33301 -1.66699 1.33301 -3 0c0.666992 0.666992 1.66699 0.666992 3 0c8.66699 -1.33301 14 -2 16 -2c8.66699 -0.666992 20.334 -0.666992 35.001 0
c8 0.666992 19.667 1.33398 35 2.00098s25 1 29 1c6 0 9 -3 9 -9s-3 -9 -9 -9c-4 0 -13.667 -0.333008 -29 -1s-26.666 -1.33398 -33.999 -2.00098c-15.333 -0.666992 -27.666 -0.666992 -36.999 0c-12.667 0 -21.334 1.33301 -26.001 4l-5 5v3c-0.666992 1.33301 -1 3 -1 5
c-0.666992 3.33301 -1.33398 8.66602 -2.00098 15.999c-0.666992 9.33301 -1.66699 25 -3 47c-2.66699 48 -4.66699 74 -6 78c-4.66699 24 -10.334 81 -17.001 171c-3.33301 46 -5 80.667 -5 104c0 15.333 0.333008 27.666 1 36.999
c0.666992 4.66699 1.33398 8.66699 2.00098 12c2 4.66699 4.33301 8 7 10l3 2h2h1h4c2.66699 0.666992 7 1 13 1c10 0.666992 23.333 1.33398 40 2.00098c36.667 1.33301 58.334 2 65.001 2c6 0 9 -3 9 -9s-3 -9 -9 -9z" />
    <glyph glyph-name="backslash" unicode="\" 
d="M54 487c18.667 -39.333 48.002 -114.334 88.002 -225.001c35.333 -97.333 65.666 -171.333 90.999 -222c2.66699 -5.33301 1.33398 -9.33301 -3.99902 -12s-9.33301 -1.33398 -12 3.99902c-26.667 52.667 -57.334 127.334 -92.001 224.001
c-39.333 108.667 -68.333 183 -87 223c-2.66699 5.33301 -1.33398 9.33301 3.99902 12s9.33301 1.33398 12 -3.99902z" />
    <glyph glyph-name="bracketright" unicode="]" horiz-adv-x="263" 
d="M43 495c2 2 5.33496 3.33301 10.002 4c3.33301 1.33301 7.66602 2.33301 12.999 3c10.667 1.33301 22 2.33301 34 3c13.333 1.33301 24.666 1.66602 33.999 0.999023c4.66699 0 8.66699 -0.333008 12 -1c2 -0.666992 3.66699 -1 5 -1c2.66699 -1.33301 4.66699 -3 6 -5
c1.33301 -1.33301 2.33301 -3 3 -5v-5c0.666992 -3.33301 1 -7.66602 1 -12.999v-35c-0.666992 -6.66699 -1 -14.5 -1 -23.5s-0.166992 -16.5 -0.5 -22.5s-0.5 -10 -0.5 -12c0 -14 -1 -67 -3 -159c-1.33301 -70.667 -1 -123 1 -157c0 -2 0.333008 -5.66699 1 -11
c2 -8.66699 3 -14 3 -16c1.33301 -7.33301 2 -13.333 2 -18c0 -6.66699 -0.666992 -11.667 -2 -15c-3.33301 -6.66699 -10.666 -11.334 -21.999 -14.001c-8 -2 -18.333 -3 -31 -3c-18.667 0.666992 -36.334 2.33398 -53.001 5.00098
c-5.33301 1.33301 -7.5 4.83301 -6.5 10.5s4.5 8.16699 10.5 7.5c15.333 -2.66699 31.666 -4.33398 48.999 -5.00098c11.333 0 20.333 0.666992 27 2c6 1.33301 9.33301 3 10 5v6c0 4.66699 -0.666992 10 -2 16c0 2.66699 -0.666992 8 -2 16c-1.33301 6 -2 10 -2 12
c-2 35.333 -2.33301 88.666 -1 159.999c2 92 3 144.667 3 158c0 2 0.166992 6 0.5 12s0.5 13.5 0.5 22.5s0.333008 17.167 1 24.5v34c0 4.66699 -0.333008 8.33398 -1 11.001c-2 0.666992 -5 1 -9 1c-8.66699 0.666992 -19 0.333984 -31 -0.999023
c-12.667 -0.666992 -23.667 -1.66699 -33 -3c-4.66699 -0.666992 -8.66699 -1.33398 -12 -2.00098l-4 -1c-4.66699 -3.33301 -8.66699 -2.66602 -12 2.00098s-2.66602 8.66699 2.00098 12z" />
    <glyph glyph-name="asciicircum" unicode="^" horiz-adv-x="419" 
d="M259 518c4 -14.667 8.83203 -28.833 14.499 -42.5s13.834 -31.5 24.501 -53.5l20 -41c2.66699 -5.33301 1.33398 -9.33301 -3.99902 -12s-9.33301 -1.33398 -12 3.99902c-3.33301 7.33301 -9.16602 19.5 -17.499 36.5s-15.333 31.833 -21 44.5
s-10.834 25.334 -15.501 38.001c-4 -5.33301 -7.83301 -11.333 -11.5 -18s-7.33398 -14.5 -11.001 -23.5s-6.5 -16.167 -8.5 -21.5l-9 -25c-4 -11.333 -6.66699 -18.333 -8 -21c-2 -6 -5.83301 -7.83301 -11.5 -5.5s-7.16699 6.16602 -4.5 11.499l8 22
c4 12.667 7.33301 21.667 10 27l10 24c4 10 8.16699 18.667 12.5 26s8.83301 14 13.5 20c1.33301 1.33301 2.66602 2 3.99902 2l-1 2c-1.33301 6 0.833984 9.83301 6.50098 11.5s9.5 -0.166016 11.5 -5.49902z" />
    <glyph glyph-name="underscore" unicode="_" horiz-adv-x="565" 
d="M44 -82c10 -4.66699 24.665 -6.33203 43.998 -4.99902c4.66699 0.666992 13.334 2 26.001 4c10.667 1.33301 19.334 2 26.001 2c114 4.66699 219.667 1.33398 317 -9.99902c6 -0.666992 8.66699 -4 8 -10s-4 -8.66699 -10 -8
c-93.333 11.333 -198.333 14.666 -315 9.99902c-5.33301 0 -13.333 -0.666992 -24 -2c-12.667 -2 -21.334 -3 -26.001 -3c-22.667 -2 -40.667 0 -54 6c-5.33301 2.66699 -6.66602 6.66699 -3.99902 12s6.66699 6.66602 12 3.99902z" />
    <glyph glyph-name="grave" unicode="`" horiz-adv-x="191" 
d="M64 509c2.66699 -5.33301 6.66699 -14.5 12 -27.5s10 -23.167 14 -30.5c2.66699 -5.33301 1.33398 -9.33301 -3.99902 -12s-9.33301 -1.33398 -12 3.99902c-4 7.33301 -8.66699 17.5 -14 30.5s-9.33301 22.167 -12 27.5s-1.33398 9.33301 3.99902 12
s9.33301 1.33398 12 -3.99902z" />
    <glyph glyph-name="a" unicode="a" horiz-adv-x="273" 
d="M82 220c25.333 2.66699 41.3311 4 47.998 4c-1.33301 16 -2 35.667 -2 59c-0.666992 57.333 -1.66699 95 -3 113c-1.33301 22 -4 44 -8 66c-3.33301 15.333 -6.66602 27 -9.99902 35c-1.33301 3.33301 -2.66602 6 -3.99902 8c-0.666992 -2 -1.33398 -4.66699 -2.00098 -8
c-1.33301 -8 -2.33301 -19.667 -3 -35v-40v-26c-5.33301 -76 -10.666 -134.667 -15.999 -176zM29.998 4c-3.33301 20 -1.00098 47.9961 6.99902 83.9961c1.33301 7.33301 4.33301 20.333 9 39s7.66699 32.334 9 41.001c2.66699 12 5 25 7 39
c-0.666992 0.666992 -1 1.33398 -1 2.00098c0 2.66699 0.666992 4.66699 2 6c5.33301 42 11 103 17 183v24v40c0.666992 16.667 1.66699 29.667 3 39c1.33301 6 3 10.667 5 14c2.66699 6 6.66699 9.33301 12 10c6 0.666992 11.333 -1.66602 16 -6.99902
c2.66699 -3.33301 5.33398 -8 8.00098 -14c4 -9.33301 7.33301 -22.333 10 -39c4.66699 -22 7.66699 -44.333 9 -67c1.33301 -18.667 2.33301 -57 3 -115c0 -23.333 0.666992 -42.666 2 -57.999h5c6 0 9 -3 9 -9s-3 -9 -9 -9h-4c0.666992 -13.333 1.66699 -25.666 3 -36.999
c0.666992 -4.66699 4.33398 -27.667 11.001 -69s10 -72.666 10 -93.999c0 -6 -3 -9 -9 -9s-9 3 -9 9c0 21.333 -3.33301 51.666 -10 90.999s-10.334 62.666 -11.001 69.999c-1.33301 12 -2.33301 24.667 -3 38c-4 0 -21.333 -1.33301 -52 -4c-2 -13.333 -4 -26 -6 -38
l-9 -41c-4.66699 -18.667 -8 -31.667 -10 -39c-6.66699 -33.333 -8.66699 -59.333 -6 -78c0.666992 -6 -2 -9.33301 -8 -10s-9.33301 2 -10 8z" />
    <glyph glyph-name="b" unicode="b" horiz-adv-x="287" 
d="M64 219c-0.666992 -16 -1.33398 -37.999 -2.00098 -65.999s-1.16699 -53.5 -1.5 -76.5s-0.5 -44.833 -0.5 -65.5c24 0 48.667 9 74 27c26.667 19.333 38.334 39.666 35.001 60.999c-3.33301 20 -13 42 -29 66c-16.667 24 -33.667 40 -51 48h-2h-8
c-6.66699 0.666992 -11.667 2.66699 -15 6zM64 243.001c2 2 4.66699 3.99805 8 5.99805c8 4.66699 12.333 7.66699 13 9c12.667 16 22.334 28.667 29.001 38s14 21.833 22 37.5s12.667 29.834 14 42.501c6 44 2.33301 76 -11 96c-6.66699 10 -15.667 15.667 -27 17
c-14 0.666992 -31.333 -4.66602 -52 -15.999v-9v-36c3.33301 -52 4.66602 -113.667 3.99902 -185zM79 230.999l1.00098 0.00292969h8c4 0 7 -0.666992 9 -2c20 -8.66699 39.333 -26.667 58 -54c17.333 -26 28 -50.667 32 -74c4.66699 -28 -9.33301 -54 -42 -78
c-28.667 -20 -57 -30 -85 -30c-4 0 -6.66699 2 -8 6h-1c-6 0 -9 3 -9 9c0 31.333 0.666992 75.333 2 132s2 108.167 2 154.5s-1.33301 90.166 -4 131.499v38c0 13.333 -1 24.666 -3 33.999c-1.33301 6 1 9.66699 7 11s9.66699 -1 11 -7c0.666992 -3.33301 1 -6.33301 1 -9
c21.333 10 39.666 14.333 54.999 13c17.333 -1.33301 31 -9.33301 41 -24c15.333 -23.333 20 -59.333 14 -108c-2 -14.667 -7.5 -30.834 -16.5 -48.501s-16.667 -31 -23 -40s-16.166 -22.167 -29.499 -39.5c-2 -2 -8 -6 -18 -12
c-0.666992 -1.33301 -1.33398 -2.33301 -2.00098 -3z" />
    <glyph glyph-name="c" unicode="c" horiz-adv-x="269" 
d="M126 416c-1.33301 5.33301 -3.00098 13.332 -5.00098 23.999c-1.33301 10.667 -2.66602 18.334 -3.99902 23.001c-4 14.667 -11.667 23 -23 25c-4.66699 1.33301 -8.33398 2 -11.001 2c-4 0 -6.33301 -0.333008 -7 -1c-3.33301 -2 -6.66602 -7.66699 -9.99902 -17
c-3.33301 -10 -6 -23.667 -8 -41c-4 -30.667 -6 -70.334 -6 -119.001c0.666992 -94 5 -161.333 13 -202c5.33301 -30 11 -51.333 17 -64c5.33301 -11.333 10.833 -18.5 16.5 -21.5s12.834 -1.5 21.501 4.5c5.33301 4.66699 11.333 16 18 34c2 6 4.33301 14 7 24
c3.33301 10 5.66602 16.667 6.99902 20c2 6 5.83301 7.83301 11.5 5.5s7.16699 -6.16602 4.5 -11.499c-0.666992 -3.33301 -2.33398 -9.66602 -5.00098 -18.999c-3.33301 -10.667 -6 -18.667 -8 -24c-7.33301 -22 -15.666 -36.333 -24.999 -43
c-14 -10.667 -27.333 -12.667 -40 -6c-9.33301 4.66699 -17.333 14.667 -24 30c-6.66699 14 -13 36.333 -19 67c-8 42 -12.333 110.667 -13 206c0 49.333 2 89.666 6 120.999c2 18.667 5 33.667 9 45c4.66699 13.333 10.334 22.333 17.001 27
c4.66699 2.66699 10.667 3.66699 18 3c4 0 8.66699 -0.666992 14 -2c18 -4 30 -16.667 36 -38c2 -5.33301 3.66699 -13.666 5 -24.999c2 -10 3.66699 -17 5 -21c1.33301 -6 -0.833984 -9.83301 -6.50098 -11.5s-9.5 0.166016 -11.5 5.49902z" />
    <glyph glyph-name="d" unicode="d" horiz-adv-x="297" 
d="M58 489c2.66699 0.666992 10.3379 1.99707 23.0049 3.99707c11.333 2.66699 20.333 4.33398 27 5.00098c25.333 2.66699 43.333 -1.66602 54 -12.999c18.667 -18 30 -52.667 34 -104c4 -46.667 1.66699 -97.667 -7 -153c-8.66699 -58.667 -22.334 -108 -41.001 -148
c-21.333 -46.667 -46.333 -75 -75 -85c-6 -1.33301 -9.83301 0.833984 -11.5 6.50098s0.166016 9.5 5.49902 11.5c23.333 7.33301 44.666 32.333 63.999 75c18 39.333 31.333 87 40 143c8.66699 54.667 11 104.334 7 149.001c-4 46.667 -13.333 77.667 -28 93
c-7.33301 6.66699 -20.666 9 -39.999 7c-6.66699 -0.666992 -15.334 -2 -26.001 -4l-24 -5c-2.66699 -0.666992 -5 0.333008 -7 3c3.33301 -52 3.66602 -133.667 0.999023 -245c-0.666992 -27.333 -0.333984 -64.333 0.999023 -111c2.66699 -54.667 4 -91.667 4 -111
c0 -6 -3 -9 -9 -9s-9 3 -9 9c0 19.333 -1 56 -3 110c-2 51.333 -2.66699 88.666 -2 111.999c4 110.667 3 198.667 -3 264c-0.666992 6 2 9.33301 8 10s9.33301 -2 10 -8l1 -10c1.33301 2 3.33301 3.33301 6 4z" />
    <glyph glyph-name="e" unicode="e" horiz-adv-x="290" 
d="M67 509c11.333 3.33301 25.998 4.66602 43.998 3.99902c4.66699 -0.666992 14 -1.66699 28 -3c11.333 -0.666992 19.666 -1 24.999 -1c6 0 9 -3 9 -9s-3 -9 -9 -9s-14.667 0.666992 -26 2c-14 0.666992 -23.333 1.33398 -28 2.00098c-20 0.666992 -35 -1.33301 -45 -6
c-2 -10.667 -3.16699 -23.167 -3.5 -37.5s-0.166016 -26.5 0.500977 -36.5s1.66699 -24 3 -42s2.33301 -30 3 -36c1.33301 -24 2 -52 2 -84c24.667 0 47.667 1.66699 69 5c6 0.666992 9.33301 -2 10 -8s-2 -9.33301 -8 -10c-22 -3.33301 -45.667 -5 -71 -5
c0 -2 -0.333008 -16.5 -1 -43.5s-1 -47.5 -1 -61.5c0 -2 -0.166992 -6.16699 -0.5 -12.5s-0.666016 -14.166 -0.999023 -23.499s-0.5 -17.333 -0.5 -24c-0.666992 -14.667 -0.666992 -26.334 0 -35.001v-11v-1c3.33301 -0.666992 7.33301 -1.33398 12 -2.00098
c9.33301 -0.666992 22 -1 38 -1c16.667 -0.666992 38.334 -1 65.001 -1c6 0 9 -3 9 -9s-3 -9 -9 -9c-26.667 0 -48.667 0.333008 -66 1c-16 0 -28.667 0.333008 -38 1c-6 0.666992 -10.667 1.33398 -14 2.00098c-2 0.666992 -3.66699 1 -5 1
c-3.33301 1.33301 -5.66602 3.16602 -6.99902 5.49902s-2.33301 5.83301 -3 10.5v13c-0.666992 8.66699 -0.666992 20.334 0 35.001c0 7.33301 0.166992 15.5 0.5 24.5s0.666016 16.667 0.999023 23s0.5 10.5 0.5 12.5c0 15.333 0.333008 37 1 65s1 53.333 1 76
s-0.666992 44 -2 64c0 4.66699 -1 17.834 -3 39.501s-3.16699 37.667 -3.5 48s0 24 1 41s2.83301 31.5 5.5 43.5c1.33301 6 5 8.33301 11 7c2.66699 -0.666992 4.66699 -2.33398 6 -5.00098z" />
    <glyph glyph-name="f" unicode="f" 
d="M72 511c10 0 25.8311 0.668945 47.498 2.00195s41.5 2 59.5 2s34 -1.33301 48 -4c6 -1.33301 8.33301 -5 7 -11s-5 -8.33301 -11 -7c-13.333 2.66699 -28.166 4 -44.499 4s-35.166 -0.666992 -56.499 -2s-37.333 -2 -48 -2c4 -54.667 6.33301 -117 7 -187
c22.667 1.33301 40.334 2 53.001 2c6 0 9 -3 9 -9s-3 -9 -9 -9c-12.667 0 -30.334 -0.666992 -53.001 -2c0 -34.667 -0.333008 -84.834 -1 -150.501s-1 -113.5 -1 -143.5c0 -6 -3 -9 -9 -9s-9 3 -9 9c0 26 0.5 78.5 1.5 157.5s1 145.167 0 198.5s-3.5 105.666 -7.5 156.999
c-0.666992 6 2 9.33301 8 10c4.66699 0.666992 7.66699 -1.33301 9 -6z" />
    <glyph glyph-name="g" unicode="g" horiz-adv-x="255" 
d="M134 385c-0.666992 4 -1.33887 14.9961 -2.00586 32.9961s-2 31.667 -4 41c-5.33301 23.333 -18.666 36.333 -39.999 39c-3.33301 0.666992 -5.83301 0.666992 -7.5 0s-3.5 -2 -5.5 -4c-5.33301 -5.33301 -10.166 -16.166 -14.499 -32.499
s-8.16602 -36.833 -11.499 -61.5c-6.66699 -49.333 -10 -104.333 -10 -165c0.666992 -63.333 5 -116.666 13 -159.999c4 -23.333 9 -41.666 15 -54.999s12 -21.333 18 -24c0.666992 0 1.33398 -0.333008 2.00098 -1c1.33301 2 2.66602 4.66699 3.99902 8
c2.66699 6.66699 5.33398 15.334 8.00098 26.001c6.66699 22 13.334 48.167 20.001 78.5s11.667 56.5 15 78.5c2 11.333 3.33301 20.666 4 27.999v10h-1h-2c-4 0 -9.66699 -1.33301 -17 -4l-21 -7c-8.66699 -3.33301 -14.334 -5.33301 -17.001 -6
c-6 -0.666992 -9.5 1.83301 -10.5 7.5s1.16699 9.16699 6.5 10.5c2 0 6.66699 1.33301 14 4l22 8c9.33301 2.66699 16.666 4.33398 21.999 5.00098c10.667 0.666992 17.334 -2.33301 20.001 -9c2 -4 2.66699 -10.667 2 -20c-0.666992 -8 -2 -18 -4 -30
c-3.33301 -22.667 -8.5 -49.167 -15.5 -79.5s-13.5 -56.833 -19.5 -79.5c-3.33301 -11.333 -6.66602 -20.666 -9.99902 -27.999c-3.33301 -8.66699 -6.33301 -14.334 -9 -17.001c-4 -3.33301 -8.66699 -4 -14 -2c-0.666992 0.666992 -1.66699 1.33398 -3 2.00098l-2 1
c-11.333 4.66699 -20.666 15.667 -27.999 33c-6.66699 14.667 -12.334 34 -17.001 58c-8 44.667 -12.333 99.334 -13 164.001c0 61.333 3.33301 117.333 10 168c3.33301 25.333 7.33301 46.333 12 63c5.33301 19.333 11.333 32.666 18 39.999
c4.66699 4.66699 9.33398 7.66699 14.001 9c4 1.33301 9 1.66602 15 0.999023c30 -3.33301 48.667 -21 56 -53c2 -10 3.5 -24.833 4.5 -44.5s1.5 -30.167 1.5 -31.5c0.666992 -6 -2 -9.33301 -8 -10s-9.33301 2 -10 8z" />
    <glyph glyph-name="h" unicode="h" horiz-adv-x="288" 
d="M155 509c22 -165.333 32.999 -339 32.999 -521c0 -6 -3 -9 -9 -9s-9 3 -9 9c0 84.667 -2.33301 167 -7 247h-1c-38 0 -68 -6 -90 -18c1.33301 -54.667 2 -132.667 2 -234c0 -6 -3 -9 -9 -9s-9 3 -9 9c0 102 -0.666992 180.333 -2 235c-1.33301 2.66699 -1.33301 5 0 7
l-4 90c-0.666992 10.667 -2 26.834 -4 48.501s-3.5 39.667 -4.5 54s-1.16699 31.166 -0.5 50.499s2.66699 36.666 6 51.999c1.33301 6 5 8.33301 11 7s8.33301 -5 7 -11c-3.33301 -15.333 -5.33301 -32 -6 -50s-0.5 -33.833 0.5 -47.5s2.5 -31.167 4.5 -52.5
s3.33301 -38.333 4 -51c1.33301 -25.333 2.33301 -51.333 3 -78c24.667 10.667 55 16 91 16c-5.33301 86.667 -13.666 171.334 -24.999 254.001c-0.666992 6 2 9.33301 8 10s9.33301 -2 10 -8z" />
    <glyph glyph-name="i" unicode="i" horiz-adv-x="193" 
d="M91 497c-1.33301 -2.66699 -3.00098 -10.668 -5.00098 -24.001s-4 -31 -6 -53c-3.33301 -38 -5.66602 -88.667 -6.99902 -152c-3.33301 -132.667 -3 -218 1 -256c0.666992 -6 -2 -9.33301 -8 -10s-9.33301 2 -10 8c-4 38.667 -4.33301 125 -1 259
c1.33301 63.333 3.66602 114 6.99902 152c2 22.667 4 41 6 55c2.66699 16 5.66699 26.333 9 31s7.33301 5.33398 12 2.00098s5.33398 -7.33301 2.00098 -12z" />
    <glyph glyph-name="j" unicode="j" horiz-adv-x="229" 
d="M115 504c-1.33301 -12 -0.333008 -47.998 3 -107.998l10 -165c2.66699 -66.667 1.33398 -118 -3.99902 -154c-2.66699 -22.667 -7.33398 -40.334 -14.001 -53.001c-7.33301 -15.333 -17.666 -24 -30.999 -26c-14.667 -2 -26.334 2.66699 -35.001 14
c-6.66699 8 -11.334 20 -14.001 36c-1.33301 8.66699 -2.66602 22 -3.99902 40c-0.666992 14.667 -1.66699 24 -3 28c-1.33301 5.33301 0.833984 8.83301 6.50098 10.5s9.5 -0.5 11.5 -6.5c1.33301 -4.66699 2.33301 -15 3 -31
c1.33301 -16.667 2.66602 -29.334 3.99902 -38.001c2 -12.667 5.33301 -22 10 -28s11 -8.33301 19 -7c6.66699 0.666992 12.334 6 17.001 16c5.33301 11.333 9.66602 27.333 12.999 48c4.66699 34.667 5.66699 85 3 151l-10 164c-4 60.667 -5 97.667 -3 111
c0.666992 6 4 8.66699 10 8s8.66699 -4 8 -10z" />
    <glyph glyph-name="k" unicode="k" horiz-adv-x="312" 
d="M76 505c-3.33301 -24 -5 -42.333 -5 -55s0.833008 -31.834 2.5 -57.501s2.5 -44.834 2.5 -57.501c0 -13.333 -1 -30 -3 -50c0 -0.666992 -0.5 -7.5 -1.5 -20.5s-1.83301 -22.833 -2.5 -29.5c-2 -30 -2 -69 0 -117c2.66699 -64 4 -103.667 4 -119c0 -6 -3 -9 -9 -9
s-9 3 -9 9c0 12.667 -1.33301 52 -4 118c-2 49.333 -2 89.333 0 120c0.666992 4.66699 1.16699 9.83398 1.5 15.501s0.833008 11.834 1.5 18.501s1 11.667 1 15c2 20 3 36.333 3 49c0 11.333 -0.833008 29 -2.5 53s-2.5 46 -2.5 66s1.66699 38.333 5 55
c1.33301 6 5 8.33301 11 7s8.33301 -5 7 -11zM210 485c-6 -9.33301 -27.666 -51.3301 -64.999 -125.997l-39 -79l-12 -26c-1.33301 -3.33301 -2.66602 -6 -3.99902 -8c1.33301 -6.66699 6.33301 -20.334 15 -41.001l32 -75c28.667 -64 48 -105.333 58 -124
c2.66699 -4.66699 1.5 -8.5 -3.5 -11.5s-9.16699 -1.83301 -12.5 3.5c-10.667 19.333 -30.334 60.666 -59.001 123.999l-32 76c-10 24.667 -15.333 40.334 -16 47.001c0 1.33301 0.333008 3 1 5c0 0.666992 0.333008 1.66699 1 3c0.666992 2 1.66699 4.66699 3 8l13 27
l39 79c37.333 75.333 59.666 118 66.999 128c3.33301 5.33301 7.5 6.16602 12.5 2.49902s5.5 -7.83398 1.5 -12.501z" />
    <glyph glyph-name="l" unicode="l" horiz-adv-x="298" 
d="M65 508c2.66699 -5.33301 4.99902 -14.999 6.99902 -28.999c1.33301 -12.667 2.66602 -28.667 3.99902 -48c2 -33.333 3.33301 -77 4 -131v-223c0 -2.66699 -0.333008 -8 -1 -16c-0.666992 -9.33301 -1.33398 -16 -2.00098 -20
c-0.666992 -7.33301 -0.666992 -13.333 0 -18c0 -4.66699 0.333008 -8 1 -10c0.666992 0 1.66699 -0.333008 3 -1c2 -0.666992 5.33301 -1.33398 10 -2.00098c8.66699 -1.33301 20.334 -2 35.001 -2c10.667 0 23.667 0.166992 39 0.5s23.333 0.5 24 0.5c6 0 9 -3 9 -9
s-3 -9 -9 -9c-0.666992 0 -8.66699 -0.166992 -24 -0.5s-28.333 -0.5 -39 -0.5c-15.333 0 -27.666 0.666992 -36.999 2c-6 0.666992 -10.667 1.66699 -14 3c-6 2 -10 4.66699 -12 8c-2 4.66699 -3.33301 11 -4 19c-0.666992 5.33301 -0.666992 12.333 0 21
c0.666992 3.33301 1.33398 10 2.00098 20c0.666992 7.33301 1 12 1 14v223c-0.666992 54 -2 97.333 -4 130c-1.33301 19.333 -2.66602 34.666 -3.99902 45.999c-1.33301 12.667 -3 20.667 -5 24c-2.66699 5.33301 -1.33398 9.33301 3.99902 12s9.33301 1.33398 12 -3.99902z
" />
    <glyph glyph-name="m" unicode="m" horiz-adv-x="326" 
d="M66 -1c-9.33301 31.333 -13.999 94.335 -13.999 189.002c0 26 0.666992 61.5 2 106.5s2 74.5 2 88.5v102v1c-0.666992 0.666992 -1 2 -1 4c-0.666992 2 -0.666992 4 0 6c0.666992 4 3 6.66699 7 8c6 2.66699 11 1.33398 15 -3.99902c2 -2 3.66699 -5 5 -9
c0.666992 -2.66699 1 -5.66699 1 -9c0.666992 -0.666992 1 -1.66699 1 -3c18 -75.333 32 -127 42 -155v-2l1 -2c0 -2 0.333008 -3.33301 1 -4c2.66699 4.66699 5.33398 11.334 8.00098 20.001c4 13.333 9.33301 34.333 16 63c8 38.667 12.667 60 14 64c2 10 4 18 6 24
c1.33301 3.33301 2.66602 6 3.99902 8c2 3.33301 4.33301 5.66602 7 6.99902c5.33301 2.66699 10 1.66699 14 -3c2 -2 4 -5 6 -9c1.33301 -5.33301 2.66602 -13 3.99902 -23c2 -14.667 3 -27 3 -37v-109c0 -36.667 2.66699 -91.667 8 -165s8 -128.333 8 -165
c0 -6 -3 -9 -9 -9s-9 3 -9 9c0 36 -2.66699 90.667 -8 164s-8 128.666 -8 165.999v109c0 9.33301 -1 21 -3 35c0 4 -0.333008 7.33301 -1 10c-1.33301 -4 -3 -9.33301 -5 -16c-0.666992 -4 -5.33398 -25.333 -14.001 -64c-6 -29.333 -11.333 -51 -16 -65
c-3.33301 -10 -6.66602 -17.667 -9.99902 -23c-4 -8 -9 -12.667 -15 -14c-5.33301 -0.666992 -9.66602 1.66602 -12.999 6.99902c-1.33301 2 -2.66602 4.66699 -3.99902 8c-0.666992 2 -1.33398 4.66699 -2.00098 8l-1 2c-4 -4.66699 -8.33301 -0.333984 -13 12.999
c-4 10.667 -11 45.334 -21 104.001v-52c0 -14 -0.666992 -43.5 -2 -88.5s-2 -80.5 -2 -106.5c0 -92.667 4.66699 -153.667 14 -183c1.33301 -6 -0.833984 -9.83301 -6.50098 -11.5s-9.5 0.166016 -11.5 5.49902z" />
    <glyph glyph-name="n" unicode="n" horiz-adv-x="318" 
d="M66 7c1.33301 12.667 2.00195 21.502 2.00195 26.502s-0.833008 14.167 -2.5 27.5s-2.83398 23 -3.50098 29c-6 81.333 -3.33301 179.333 8 294c1.33301 16 2.33301 38.667 3 68v28v8v2v2v2c0.666992 0.666992 1 1.33398 1 2.00098c2 2.66699 4.66699 4 8 4
c5.33301 0 9.66602 -2.66699 12.999 -8c2 -3.33301 4 -8 6 -14c3.33301 -8.66699 6.33301 -20.667 9 -36c2 -6.66699 5.66699 -27.334 11 -62.001l11 -68c4.66699 -32.667 8.66699 -57.667 12 -75l12 -67c4.66699 -27.333 9.83398 -52.333 15.501 -75s11.5 -44.667 17.5 -66
c2.66699 16.667 4.5 44 5.5 82s1.83301 61 2.5 69c1.33301 16 1.66602 36 0.999023 60c0 0.666992 -0.166992 9.16699 -0.5 25.5s-0.5 28.5 -0.5 36.5c0 21.333 0.5 53.166 1.5 95.499s1.5 74.166 1.5 95.499c0 6 3 9 9 9s9 -3 9 -9c0 -21.333 -0.5 -53.166 -1.5 -95.499
s-1.5 -74.166 -1.5 -95.499v-20c0 -6.66699 0.166992 -14 0.5 -22s0.5 -14.333 0.5 -19c0.666992 -24 0.333984 -45 -0.999023 -63c-0.666992 -9.33301 -1.33398 -26.333 -2.00098 -51s-1.66699 -47.334 -3 -68.001s-3.33301 -37.334 -6 -50.001
c0 -0.666992 -0.333008 -1.66699 -1 -3c0 -2 -0.333008 -3.33301 -1 -4c-1.33301 -6.66699 -4.83301 -10.334 -10.5 -11.001s-10.167 1.33301 -13.5 6c-1.33301 2.66699 -2.33301 5.66699 -3 9c0 1.33301 -0.333008 4 -1 8c0 2.66699 -0.333008 4.33398 -1 5.00098
c-6.66699 22 -12.834 44.667 -18.501 68s-11.167 49 -16.5 77l-12 68l-12 77l-11 69c-5.33301 32.667 -8.66602 52.667 -9.99902 60l-2 10c-0.666992 -28.667 -1.66699 -50.667 -3 -66c-11.333 -114 -14 -210.667 -8 -290c0 -4.66699 1 -14 3 -28s3 -24 3 -30
s-0.666992 -16.333 -2 -31c-1.33301 -6 -5 -8.33301 -11 -7s-8.33301 5 -7 11z" />
    <glyph glyph-name="o" unicode="o" horiz-adv-x="297" 
d="M56 452c-3.33301 2.66699 -3.99902 5.99805 -1.99902 9.99805c1.33301 2.66699 2.66602 5.66699 3.99902 9l4 10c4 9.33301 8 16.333 12 21c13.333 14 27.666 17.333 42.999 10c10.667 -5.33301 21 -16.666 31 -33.999c18 -29.333 28.667 -56.333 32 -81l11 -85
c2 -18 3.83301 -42.667 5.5 -74s0.5 -60.166 -3.5 -86.499s-10.333 -53.166 -19 -80.499c-1.33301 -2 -3.33301 -8 -6 -18s-5 -17.667 -7 -23c-7.33301 -18.667 -15.333 -32 -24 -40c-13.333 -11.333 -26.666 -13 -39.999 -5c-9.33301 6 -18.333 17.333 -27 34
c-12 23.333 -20.667 47.666 -26 72.999c-8.66699 42.667 -12.167 100.667 -10.5 174s9.16699 135.333 22.5 186zM86.001 487.998c-18 -44 -29.168 -108.333 -33.501 -193s-1.16602 -151 9.50098 -199c4.66699 -24 12.667 -47 24 -69c6.66699 -13.333 13.667 -22 21 -26
c5.33301 -4 11.333 -3 18 3s13 16.667 19 32c2 5.33301 4.33301 12.833 7 22.5s4.33398 15.834 5.00098 18.501c9.33301 26 15.833 51.667 19.5 77s4.66699 53.166 3 83.499s-3.5 54.5 -5.5 72.5s-5.66699 46.333 -11 85c-3.33301 22 -13 46.667 -29 74
c-8.66699 14 -17 23 -25 27c-6.66699 3.33301 -13.334 1.33301 -20.001 -6l-1 -1c0 -0.666992 -0.333008 -1 -1 -1z" />
    <glyph glyph-name="p" unicode="p" horiz-adv-x="301" 
d="M86 257c-2.66699 -109.333 1.33496 -192.667 12.002 -250c0.666992 -6 -1.83301 -9.5 -7.5 -10.5s-9.16699 1.16699 -10.5 6.5c-6.66699 36.667 -10.834 74.834 -12.501 114.501s-1.66699 90 0 151s2.5 98.833 2.5 113.5c0 8 0.5 21.333 1.5 40s1.16699 34.5 0.5 47.5
s-2.33398 25.167 -5.00098 36.5c-1.33301 6 1 9.66699 7 11s9.66699 -1 11 -7s2.33301 -12.667 3 -20c23.333 14 49 21 77 21c13.333 0 23 -4.33301 29 -13c5.33301 -7.33301 7.66602 -17.333 6.99902 -30c-1.33301 -19.333 -9.66602 -45.333 -24.999 -78
c-12 -25.333 -26.333 -51.333 -43 -78s-29 -44.334 -37 -53.001c-2.66699 -3.33301 -6 -4 -10 -2zM86.002 275.999c26.667 33.333 51.333 73.999 74 121.999c14 30.667 21.667 54.334 23 71.001c0.666992 8.66699 -0.333008 15 -3 19c-2.66699 3.33301 -7.66699 5 -15 5
c-26.667 0 -50.334 -6.66699 -71.001 -20c-1.33301 -1.33301 -2.66602 -2 -3.99902 -2c0.666992 -11.333 0.5 -27.5 -0.5 -48.5s-1.5 -34.5 -1.5 -40.5c0 -20.667 -0.666992 -56 -2 -106z" />
    <glyph glyph-name="q" unicode="q" horiz-adv-x="304" 
d="M128 124c-11.333 16 -19.6719 31.999 -25.0049 47.999c-1.33301 6 0.833984 9.83301 6.50098 11.5s9.5 -0.166016 11.5 -5.49902c2.66699 -10 6.33398 -19.333 11.001 -28c16.667 105.333 20.667 187 12 245c-6 39.333 -14.667 71.666 -26 96.999
c-3.33301 7.33301 -6.66602 12.666 -9.99902 15.999l-4 3c-1.33301 -0.666992 -3.66602 -3.33398 -6.99902 -8.00098c-4 -7.33301 -8 -18.333 -12 -33c-1.33301 -5.33301 -4.66602 -7.66602 -9.99902 -6.99902c-2.66699 -10 -5 -21.667 -7 -35
c-4.66699 -31.333 -8.33398 -69.666 -11.001 -114.999c-4 -84.667 -4 -152 0 -202c3.33301 -39.333 5.33301 -60.666 6 -63.999c5.33301 -24.667 14.333 -37.667 27 -39c4.66699 -0.666992 9.33398 2.33301 14.001 9c4 6 7.66699 15.667 11 29c2.66699 10 5 22.333 7 37
c0.666992 3.33301 1.5 8.33301 2.5 15s1.5 11 1.5 13zM142.994 104.999c0 -2 -0.334961 -5.66699 -1.00195 -11s-1.33398 -10 -2.00098 -14c-2 -15.333 -4.33301 -28 -7 -38c-4 -15.333 -9 -27.333 -15 -36c-8 -11.333 -18 -16.666 -30 -15.999
c-21.333 2 -35.666 19.667 -42.999 53c-0.666992 4 -2.66699 26 -6 66c-4 50.667 -4 119 0 205c2.66699 46.667 6.33398 85.667 11.001 117c6 37.333 14 62 24 74c1.33301 1.33301 3 2.33301 5 3c1.33301 1.33301 2.33301 2.66602 3 3.99902
c5.33301 9.33301 11.666 15 18.999 17c7.33301 1.33301 14 -1.66699 20 -9c4.66699 -4.66699 9 -11.667 13 -21c12 -26 21.333 -60 28 -102c3.33301 -20.667 5.33301 -42.334 6 -65.001c0 -22.667 -1.16699 -46.5 -3.5 -71.5s-4.66602 -46.333 -6.99902 -64
s-5.83301 -40.167 -10.5 -67.5c5.33301 -6.66699 23.333 -25.667 54 -57c4.66699 -4 4.83398 -8.16699 0.500977 -12.5s-8.5 -4.16602 -12.5 0.500977z" />
    <glyph glyph-name="r" unicode="r" horiz-adv-x="284" 
d="M68 474c0 -50 -0.333984 -117.998 -1.00098 -203.998l19 24l20 26c4.66699 6 10.334 14.167 17.001 24.5s12 19.833 16 28.5s7 17 9 25c4 13.333 4 26.666 0 39.999s-10.667 24 -20 32c-18.667 17.333 -38.667 18.666 -60 3.99902zM77.999 254.002
c6 -7.33301 13.999 -21.6641 23.999 -42.9971c8.66699 -17.333 19 -40.666 31 -69.999l19 -48l19 -47c5.33301 -13.333 9.33301 -23 12 -29c2.66699 -5.33301 1.33398 -9.33301 -3.99902 -12s-9.33301 -1.33398 -12 3.99902l-12 29l-19 48l-20 48
c-12 29.333 -22 52.666 -30 69.999c-8 16 -14.333 27.667 -19 35c-0.666992 -110.667 -1 -194.334 -1 -251.001c0 -6 -3 -9 -9 -9s-9 3 -9 9c0 56 0.333008 138 1 246s1 187 1 237c-3.33301 4 -3.33301 8 0 12v7v7c0 6 3 9 9 9s9 -3 9 -9v-2c26 12.667 50 9 72 -11
c12 -10.667 20.333 -24.167 25 -40.5s5 -32.833 1 -49.5c-3.33301 -12 -9 -25.167 -17 -39.5s-14.667 -25.333 -20 -33s-14.833 -20.334 -28.5 -38.001s-21.167 -27.5 -22.5 -29.5z" />
    <glyph glyph-name="s" unicode="s" horiz-adv-x="288" 
d="M136 430c-0.666992 3.33301 -2.00098 11.6611 -4.00098 24.9941c-0.666992 8.66699 -2.66699 15.334 -6 20.001c-8 14 -16.667 21.667 -26 23c-8 0.666992 -15.667 -3 -23 -11c-8 -8.66699 -14 -20.167 -18 -34.5s-4.66699 -27.5 -2 -39.5
c2 -10 5.66699 -19.833 11 -29.5s13 -21.5 23 -35.5c10 -13.333 16.667 -22.666 20 -27.999c51.333 -81.333 77 -157.666 77 -228.999c0 -27.333 -11 -52.333 -33 -75c-26 -26 -53.333 -30.333 -82 -13c-9.33301 6 -16.666 16.667 -21.999 32c-2 4.66699 -4 10.667 -6 18
c-2 8.66699 -3.33301 13.667 -4 15c-1.33301 6 0.833984 9.83301 6.50098 11.5s9.5 -0.166016 11.5 -5.49902c0.666992 -2 2 -7.66699 4 -17c1.33301 -6.66699 3 -12 5 -16c4 -11.333 9 -18.666 15 -21.999c20.667 -12.667 40.334 -9.33398 59.001 9.99902
c18.667 18.667 28 39.334 28 62.001c0 68.667 -25 141.667 -75 219c-2 3.33301 -8.16699 12.333 -18.5 27s-18.5 27.5 -24.5 38.5s-10.333 22.167 -13 33.5c-3.33301 15.333 -2.5 31.5 2.5 48.5s12.5 30.833 22.5 41.5c11.333 12.667 24 18.334 38 17.001
c15.333 -2 28.666 -12.333 39.999 -31c4 -7.33301 6.66699 -16.333 8 -27c2 -13.333 3.33301 -21.333 4 -24c1.33301 -5.33301 -0.833984 -8.83301 -6.50098 -10.5s-9.5 0.5 -11.5 6.5z" />
    <glyph glyph-name="t" unicode="t" horiz-adv-x="315" 
d="M112 496c28.667 2 60 3.00293 94 3.00293c6 0 9 -3 9 -9s-3 -9 -9 -9c-35.333 0 -68 -1 -98 -3c-2.66699 -12.667 -3.66699 -29.334 -3 -50.001c1.33301 -41.333 2 -64.333 2 -69c-5.33301 -82 -8 -203.667 -8 -365c0 -6 -3 -9 -9 -9s-9 3 -9 9
c0 161.333 2.66699 283.666 8 366.999c0 4 -0.666992 26 -2 66c-0.666992 20 0 36.333 2 49c-28 -2.66699 -54.667 -6.33398 -80 -11.001c-6 -1.33301 -9.66699 1 -11 7s1 9.66699 7 11c28 5.33301 57.667 9.33301 89 12l1 2c2 6 5.66699 7.66699 11 5
c3.33301 -0.666992 5.33301 -2.66699 6 -6z" />
    <glyph glyph-name="u" unicode="u" horiz-adv-x="274" 
d="M75 502c-11.333 -32 -17.001 -94 -17.001 -186c0 -70.667 3.33301 -135.334 10 -194.001c2 -16.667 6.33301 -37 13 -61c4 -14 8.33301 -25 13 -33c4 -7.33301 7 -11 9 -11s5 3.66699 9 11c4.66699 7.33301 9.33398 18 14.001 32c9.33301 28 14.333 48.667 15 62
c0.666992 10.667 2.66699 25 6 43c3.33301 19.333 5.33301 33 6 41c6 74 3 171.667 -9 293c-0.666992 6 2 9.33301 8 10s9.33301 -2 10 -8c12 -122 15 -221 9 -297c-0.666992 -8.66699 -3 -22.667 -7 -42c-2.66699 -17.333 -4.33398 -30.666 -5.00098 -39.999
c-0.666992 -16 -5.66699 -38.333 -15 -67c-5.33301 -15.333 -10.666 -27.666 -15.999 -36.999c-8 -12.667 -16.333 -19 -25 -19c-9.33301 0 -17.666 6.66699 -24.999 20c-4.66699 9.33301 -9.33398 21.666 -14.001 36.999c-7.33301 24.667 -12 46 -14 64
c-6.66699 59.333 -10 124.666 -10 195.999c0 94 6.33301 158 19 192c2 6 5.83301 7.83301 11.5 5.5s7.16699 -6.16602 4.5 -11.499z" />
    <glyph glyph-name="v" unicode="v" horiz-adv-x="274" 
d="M60 499c0 -36.667 2.5 -75.1689 7.5 -115.502s11.667 -85 20 -134s14.166 -87.833 17.499 -116.5c0.666992 -8 4.33398 -29.667 11.001 -65l1 -7c4.66699 28 9.33398 65 14.001 111c4 44.667 8.33301 102 13 172c4.66699 75.333 8.66699 130 12 164
c0.666992 6 4 8.66699 10 8s8.66699 -4 8 -10c-3.33301 -34 -7.33301 -88.667 -12 -164s-9 -132.666 -13 -171.999c-5.33301 -52 -11 -96 -17 -132c-2 -9.33301 -3 -16 -3 -20v-1c0 -0.666992 0.333008 -2 1 -4c0.666992 -2.66699 0.666992 -4.66699 0 -6
c-0.666992 -3.33301 -2.33398 -5.66602 -5.00098 -6.99902s-5.33398 -1.66602 -8.00098 -0.999023c-1.33301 0.666992 -2.66602 1.66699 -3.99902 3c-0.666992 0.666992 -1.16699 1.33398 -1.5 2.00098s-0.5 1.33398 -0.5 2.00098c-0.666992 1.33301 -1.33398 3 -2.00098 5
c-0.666992 3.33301 -1.66699 7.66602 -3 12.999l-8 41c-6 35.333 -9.66699 57.333 -11 66c-3.33301 27.333 -9.16602 65.666 -17.499 114.999s-15 94.666 -20 135.999s-7.5 80.333 -7.5 117c0 6 3 9 9 9s9 -3 9 -9z" />
    <glyph glyph-name="w" unicode="w" 
d="M48 494c1.33301 -0.666992 2.33691 -2.33301 3.00391 -5c0.666992 -0.666992 1.33398 -2 2.00098 -4c0.666992 -2.66699 1.33398 -6.66699 2.00098 -12c2 -9.33301 4.33301 -22.333 7 -39c3.33301 -22 8.66602 -61 15.999 -117c13.333 -104.667 21.333 -170.667 24 -198
c4 -42 6.33301 -64.333 7 -67c11.333 58 17 88 17 90c0 0.666992 0.333008 3 1 7c1.33301 4 2 7.33301 2 10c1.33301 4 3 7.33301 5 10c2 2 4.5 3.16699 7.5 3.5s5.83301 -0.5 8.5 -2.5c2 -1.33301 3.66699 -3.33301 5 -6l3 -6c2 -4.66699 4.33301 -11 7 -19l19 -54
c7.33301 -22.667 13.666 -39.667 18.999 -51c1.33301 -3.33301 3 -6.33301 5 -9c0.666992 6 1 14 1 24c1.33301 20.667 2 44 2 70c0 43.333 0.833008 108.166 2.5 194.499s2.5 150.833 2.5 193.5c0 6 3 9 9 9s9 -3 9 -9c0 -42.667 -0.833008 -107.167 -2.5 -193.5
s-2.5 -151.166 -2.5 -194.499c0 -26.667 -0.666992 -50.334 -2 -71.001c-0.666992 -12.667 -1.33398 -22.667 -2.00098 -30c-0.666992 -4.66699 -1.33398 -8 -2.00098 -10s-1.33398 -3.66699 -2.00098 -5c-2.66699 -3.33301 -5.66699 -5 -9 -5
c-5.33301 0 -10.333 3.33301 -15 10c-3.33301 4.66699 -6.66602 11 -9.99902 19c-4.66699 9.33301 -11.334 26.666 -20.001 51.999l-19 54l-3 10c-0.666992 -2 -1 -3.66699 -1 -5c-3.33301 -13.333 -7.5 -34 -12.5 -62s-9.16699 -49 -12.5 -63v-2
c-0.666992 -2.66699 -1 -4.33398 -1 -5.00098c0 -2.66699 -0.666992 -5 -2 -7c-2 -4 -5.33301 -6 -10 -6c-2.66699 0 -5 1 -7 3c0 0.666992 -0.333008 1.33398 -1 2.00098c0 0.666992 -0.333008 1 -1 1v1v3c-0.666992 1.33301 -1 3 -1 5
c-0.666992 4 -1.33398 9.33301 -2.00098 16c-0.666992 4 -1.16699 7.83301 -1.5 11.5s-0.5 6.5 -0.5 8.5l-1 4c-0.666992 3.33301 -3 26.333 -7 69c-4 39.333 -12 105 -24 197c-6 47.333 -11.333 86.333 -16 117c-2.66699 16.667 -4.66699 29.667 -6 39
c-1.33301 4.66699 -2.33301 8.33398 -3 11.001c0 0.666992 -0.333008 1.33398 -1 2.00098c-2 4 -1.33301 7.66699 2 11c4 4.66699 8 4.66699 12 0z" />
    <glyph glyph-name="x" unicode="x" horiz-adv-x="343" 
d="M54 518c6 -14.667 11.334 -33.998 16.001 -57.998c5.33301 -30 9.33301 -49.333 12 -58c5.33301 -20 17.666 -73.333 36.999 -160c18.667 56.667 31.334 93.667 38.001 111c5.33301 16 17.333 41.333 36 76c16 31.333 26.667 56 32 74
c2 5.33301 5.83301 7.16602 11.5 5.49902s7.83398 -5.5 6.50098 -11.5c-6 -18.667 -17.333 -44.334 -34 -77.001c-18 -34 -30 -58.333 -36 -73c-0.666992 -3.33301 -16 -49.666 -46 -138.999c20.667 -86 45 -154.333 73 -205c2.66699 -4.66699 1.5 -8.5 -3.5 -11.5
s-9.16699 -1.83301 -12.5 3.5c-26 46.667 -48.667 107.334 -68 182.001c-26.667 -78.667 -51 -137 -73 -175c-3.33301 -4.66699 -7.5 -5.5 -12.5 -2.5s-6.16699 7.16699 -3.5 12.5c23.333 39.333 50.333 105 81 197c-1.33301 7.33301 -7.33301 34.666 -18 81.999
s-19.334 83 -26.001 107c-2 8.66699 -6 28 -12 58c-4.66699 23.333 -9.33398 42 -14.001 56c-2.66699 5.33301 -1.16699 9.16602 4.5 11.499s9.5 0.5 11.5 -5.5z" />
    <glyph glyph-name="y" unicode="y" horiz-adv-x="291" 
d="M189 502c-2.66699 -3.33301 -6.00098 -11.998 -10.001 -25.998c-4 -13.333 -8.33301 -31 -13 -53c-8.66699 -37.333 -18.334 -87.333 -29.001 -150c-16 -94 -29.667 -179 -41 -255c-0.666992 -6 -4 -8.66699 -10 -8s-8.66699 4 -8 10c11.333 78 25 163.333 41 256l3 17
c-2.66699 0 -4.66699 1.33301 -6 4c-13.333 20 -28.666 52.667 -45.999 98c-16.667 44 -31 75.333 -43 94c-2.66699 5.33301 -1.5 9.5 3.5 12.5s9.16699 2.16699 12.5 -2.5c12 -20 26.667 -52.667 44 -98c16 -40.667 29 -69.667 39 -87c8.66699 45.333 16.334 83 23.001 113
c4.66699 22 9 40 13 54c4.66699 16 9 26.333 13 31c3.33301 5.33301 7.5 6.16602 12.5 2.49902s5.5 -7.83398 1.5 -12.501z" />
    <glyph glyph-name="z" unicode="z" horiz-adv-x="315" 
d="M39 508c17.333 0 44.665 -0.666992 81.998 -2c19.333 -0.666992 35 -1.66699 47 -3c6.66699 -0.666992 12 -1 16 -1c2 -0.666992 3.66699 -1 5 -1c1.33301 -0.666992 2.33301 -1 3 -1c2 -1.33301 3.5 -2.83301 4.5 -4.5s1.5 -3.83398 1.5 -6.50098v-4
c-0.666992 -3.33301 -1.66699 -7.33301 -3 -12c-2 -8.66699 -5.33301 -20.667 -10 -36l-35 -108c-30.667 -93.333 -51 -152.333 -61 -177c-6.66699 -18 -15 -45.333 -25 -82c-6 -19.333 -10 -35 -12 -47c-1.33301 -6 -2 -10.667 -2 -14
c5.33301 -1.33301 13.333 -2.33301 24 -3c12 0 27.667 0.333008 47 1c10 0 25.333 0.666992 46 2s33.667 2 39 2c6 0 9 -3 9 -9s-3 -9 -9 -9c-5.33301 0 -18.166 -0.5 -38.499 -1.5s-35.5 -1.83301 -45.5 -2.5c-20 -0.666992 -36.333 -1 -49 -1
c-16.667 0.666992 -28 2.66699 -34 6c-3.33301 1.33301 -5.33301 4 -6 8c-0.666992 2 -1 4.33301 -1 7c0 4.66699 1 10.667 3 18c2 12 5.66699 28 11 48c10.667 37.333 19.667 65 27 83c7.33301 20 27.333 79 60 177c15.333 46.667 26.666 82.334 33.999 107.001l11 36
c0.666992 2.66699 1 4.66699 1 6c-3.33301 0.666992 -7.66602 1 -12.999 1c-11.333 1.33301 -26.666 2.33301 -45.999 3c-37.333 1.33301 -64.333 2 -81 2c-6 0 -9 3 -9 9s3 9 9 9z" />
    <glyph glyph-name="braceleft" unicode="{" horiz-adv-x="337" 
d="M230 1c-38.667 -8.66699 -72.002 -3.66602 -100.002 15.001c-32 20.667 -43 51.667 -33 93c2 7.33301 5.66699 15.333 11 24c6.66699 11.333 10.667 18 12 20c10 20.667 6 38 -12 52c-15.333 11.333 -34.666 18.333 -57.999 21h-13c-6 0 -9 3 -9 9s3 9 9 9h4
c1.33301 0.666992 3 1 5 1h4c30 2.66699 49.333 15.667 58 39c6.66699 17.333 8.33398 49 5.00098 95c-2.66699 46 -0.333984 76.667 6.99902 92c6.66699 14 17.334 23 32.001 27c14.667 3.33301 33.667 2 57 -4c6 -2 8.16699 -5.83301 6.5 -11.5
s-5.16699 -7.83398 -10.5 -6.50098c-20.667 6 -37 7.33301 -49 4c-9.33301 -2 -16 -7.33301 -20 -16c-6 -12.667 -7.66699 -40.667 -5 -84c3.33301 -48.667 1.33301 -82.667 -6 -102s-19.666 -33.333 -36.999 -42c12 -4.66699 22.333 -10.334 31 -17.001
c25.333 -20 31 -44.667 17 -74c-1.33301 -2.66699 -5.33301 -9.66699 -12 -21c-4.66699 -7.33301 -7.66699 -13.666 -9 -18.999c-8.66699 -33.333 -0.333984 -58 24.999 -74c23.333 -16 52 -20 86 -12c6 1.33301 9.66699 -1 11 -7s-1 -9.66699 -7 -11z" />
    <glyph glyph-name="bar" unicode="|" horiz-adv-x="203" 
d="M90 488c0 -14 1.66699 -33.668 5 -59.001c3.33301 -28 5.33301 -48.333 6 -61c1.33301 -36.667 2.16602 -75.5 2.49902 -116.5s0.166016 -87.833 -0.500977 -140.5s-1 -91.667 -1 -117c0 -6 -3 -9 -9 -9s-9 3 -9 9c0 25.333 0.333008 64.333 1 117
s0.833984 99.334 0.500977 140.001s-1.16602 79.667 -2.49902 117c-0.666992 11.333 -2.66699 31 -6 59s-5 48.333 -5 61c0 6 3 9 9 9s9 -3 9 -9z" />
    <glyph glyph-name="braceright" unicode="}" horiz-adv-x="337" 
d="M25 473c5.33301 2 10.667 3.66895 16 5.00195s11.166 2.16602 17.499 2.49902s11.5 0.5 15.5 0.5h17h15c25.333 0 40.666 -8.66699 45.999 -26c3.33301 -12 1 -29.333 -7 -52l-10 -27c-4.66699 -12 -8.33398 -21 -11.001 -27c-5.33301 -18 -6.66602 -30.333 -3.99902 -37
c4 -9.33301 16.333 -19.666 37 -30.999c14 -8 30.333 -15.667 49 -23c4.66699 -1.33301 6.66699 -4.33301 6 -9c5.33301 1.33301 9.66602 2.66602 12.999 3.99902c6 1.33301 9.83301 -0.833984 11.5 -6.50098s-0.166016 -9.5 -5.49902 -11.5
c-7.33301 -2 -19.833 -4.83301 -37.5 -8.5s-31.5 -7.66699 -41.5 -12s-19.333 -10.5 -28 -18.5c-10 -10 -13 -20.667 -9 -32c2 -8.66699 9.66699 -21 23 -37c14 -18.667 22.667 -32.667 26 -42c6 -17.333 1.66699 -32.666 -13 -45.999c-18 -15.333 -41.333 -23 -70 -23
c-10.667 0 -20.667 -0.333008 -30 -1c-6 -0.666992 -9.33301 2 -10 8s2 9.33301 8 10c10.667 0.666992 21.334 1 32.001 1c24 0 43.333 6.33301 58 19c8.66699 7.33301 11.334 16 8.00098 26c-2.66699 7.33301 -10.667 19.666 -24 36.999c-14 18.667 -22.667 33 -26 43
c-5.33301 18.667 -0.333008 35 15 49c16 16 42.667 28.333 80 37c-16.667 6.66699 -31.334 13.334 -44.001 20.001c-24 13.333 -38.667 26.333 -44 39c-5.33301 11.333 -4.33301 28.333 3 51c2 6 5.5 15.167 10.5 27.5s8.5 21.166 10.5 26.499
c6.66699 19.333 8.66699 33 6 41c-2 8.66699 -11.333 13 -28 13c-38 0 -63 -2 -75 -6c-5.33301 -2.66699 -9.16602 -1.16699 -11.499 4.5s-0.5 9.5 5.5 11.5z" />
    <glyph glyph-name="asciitilde" unicode="~" horiz-adv-x="366" 
d="M47 186c0 9.33301 4.33301 22.335 13 39.002c7.33301 15.333 16.666 29.666 27.999 42.999c12.667 16 24.334 27 35.001 33c7.33301 3.33301 14 5 20 5c7.33301 -0.666992 13.333 -4 18 -10c1.33301 -1.33301 2 -3.33301 2 -6c0.666992 -1.33301 1 -2.66602 1 -3.99902
c0 -2.66699 0.333008 -6 1 -10c0 -2 0.166992 -4.16699 0.5 -6.5s0.5 -4.16602 0.5 -5.49902v-3c2.66699 -29.333 7.33398 -49.333 14.001 -60c2.66699 -4 5 -6.33301 7 -7s4.33301 -0.333984 7 0.999023c7.33301 2.66699 16 11 26 25c9.33301 12.667 19 29 29 49
c2.66699 5.33301 6.66699 6.66602 12 3.99902s6.66602 -6.66699 3.99902 -12c-10.667 -20.667 -20.667 -38 -30 -52c-12 -16 -23.333 -26.333 -34 -31c-6.66699 -2.66699 -13.167 -3 -19.5 -1s-11.833 6.66699 -16.5 14c-8 13.333 -13.667 36 -17 68v3
c0 1.33301 -0.166992 3.16602 -0.5 5.49902s-0.5 4.5 -0.5 6.5c0 4 -0.333008 7.33301 -1 10v2l-4 2c-2.66699 0 -6 -1 -10 -3c-8.66699 -4.66699 -18.667 -14 -30 -28c-10 -12.667 -18.667 -26 -26 -40s-11 -24.333 -11 -31c0 -6 -3 -9 -9 -9s-9 3 -9 9z" />
    <glyph glyph-name="quoteleft" unicode="&#x2018;" horiz-adv-x="221" 
d="M112 490c-16 0 -28.667 -8.33398 -38 -25.001c-9.33301 -15.333 -14 -32.666 -14 -51.999c0 -6 -3 -9 -9 -9s-9 3 -9 9c0 22.667 5.33301 43 16 61c13.333 22.667 31.333 34 54 34c6 0 9 -3 9 -9s-3 -9 -9 -9z" />
    <glyph glyph-name="quoteright" unicode="&#x2019;" horiz-adv-x="195" 
d="M77 512c12.667 -7.33301 19 -22 19 -44c-0.666992 -6.66699 -2.66699 -21 -6 -43c-1.33301 -5.33301 -4.83301 -7.5 -10.5 -6.5s-8.16699 4.5 -7.5 10.5c3.33301 20 5.33301 33.333 6 40c0 14.667 -3 23.667 -9 27c-5.33301 3.33301 -6.5 7.5 -3.5 12.5
s6.83301 6.16699 11.5 3.5z" />
    <glyph glyph-name="quotedblleft" unicode="&#x201c;" horiz-adv-x="266" 
d="M96 485c-29.333 -13.333 -44.001 -41.001 -44.001 -83.001c0 -6 -3 -9 -9 -9s-9 3 -9 9c0 50 18 83 54 99c5.33301 2.66699 9.33301 1.33398 12 -3.99902s1.33398 -9.33301 -3.99902 -12zM161.999 472.999c-17.333 -12.667 -29.8359 -23.999 -37.5029 -33.999
s-11.5 -23 -11.5 -39c0 -6 -3 -9 -9 -9s-9 3 -9 9c0 14 3 26.667 9 38s12.333 20.166 19 26.499s16.334 13.833 29.001 22.5c4.66699 4 8.83398 3.5 12.501 -1.5s2.83398 -9.16699 -2.49902 -12.5z" />
    <glyph glyph-name="quotedblright" unicode="&#x201d;" horiz-adv-x="260" 
d="M57 488c16 -8.66699 25.6689 -23.333 29.002 -44c3.33301 -15.333 2.66602 -32 -2.00098 -50c-1.33301 -6 -5 -8.33301 -11 -7s-8.33301 5 -7 11c4 16 5 30.333 3 43c-2.66699 14.667 -9.33398 25 -20.001 31c-5.33301 3.33301 -6.5 7.5 -3.5 12.5
s6.83301 6.16699 11.5 3.5zM122.002 493.001c22.667 -16 35.3311 -44.332 37.998 -84.999c0.666992 -6 -2 -9.33301 -8 -10s-9.33301 2 -10 8c-2.66699 35.333 -12.667 59.666 -30 72.999c-5.33301 3.33301 -6.16602 7.5 -2.49902 12.5s7.83398 5.5 12.501 1.5z" />
    <glyph glyph-name="uni3000" unicode="&#x3000;" horiz-adv-x="1000" 
 />
    <glyph glyph-name=".null" horiz-adv-x="0" 
 />
    <glyph glyph-name="nonmarkingreturn" horiz-adv-x="333" 
 />
  </font>
</defs>
</svg>
